<svg width="166" height="166" viewBox="0 0 166 166" fill="none" xmlns="http://www.w3.org/2000/svg">
<circle cx="82.8921" cy="82.8917" r="74.9232" transform="rotate(6.47273 82.8921 82.8917)" fill="#1C57A8"/>
<path d="M26.5524 96.6179C27.9251 96.1963 31.347 95.2207 32.0187 95.0148C32.4403 94.8874 32.5138 94.7403 32.4256 94.451L32.2001 93.7206C31.9941 93.044 32.1903 92.3822 33.5041 91.9802C35.1857 91.4605 35.8377 92.0194 36.9457 95.6227C38.0536 99.2212 37.833 100.069 36.1515 100.589C34.8376 100.996 34.2934 100.54 34.0924 99.883L33.862 99.1329C33.7738 98.8388 33.6218 98.7456 33.2051 98.878C32.5285 99.0839 29.1556 100.226 27.7878 100.648C26.1455 101.153 25.3562 100.476 24.9983 99.3241C24.6404 98.1524 24.9051 97.1327 26.5475 96.6277L26.5524 96.6179Z" fill="#FFF6F6"/>
<path d="M28.3272 105.556C29.0185 104.82 30.1901 104.05 32.3031 102.928C33.6023 102.237 35.3378 101.344 36.9752 100.839C38.0979 100.506 38.8185 100.727 39.3039 101.638C39.8039 102.585 39.5294 103.251 38.4999 103.796C38.0293 104.046 37.4851 104.291 37.0438 104.521C36.6565 104.727 36.5732 104.899 36.6467 105.036C36.7203 105.173 36.8134 105.188 37.0389 105.242C37.8626 105.408 38.4116 105.835 38.8235 106.61C39.7647 108.384 38.5391 110.031 36.4261 111.149C34.9211 111.948 33.4944 112.64 32.308 112.899C31.5432 113.047 30.9991 112.88 30.5333 112.002C30.0039 111.007 30.4304 110.262 31.1412 109.884C31.6462 109.576 32.3325 109.232 33.0336 108.879C33.514 108.644 34.0141 108.404 34.4553 108.169C35.1319 107.811 35.4015 107.301 35.1417 106.811C34.9358 106.423 34.2494 106.07 33.3571 106.546C32.2933 107.11 31.4158 107.703 30.3862 108.252C29.3567 108.796 28.5919 108.335 28.1899 107.575C27.7144 106.678 27.8565 106.085 28.3321 105.556H28.3272Z" fill="#FFF6F6"/>
<path d="M34.2594 115.032C34.6319 114.507 35.2889 113.89 36.5685 112.914C37.8333 111.953 38.9461 111.272 39.8531 110.943C40.8042 110.58 41.3484 110.669 41.7112 111.139C42.0249 111.551 41.9465 111.826 41.819 112.041C41.5886 112.336 41.5739 112.443 41.667 112.566C41.7602 112.689 41.8729 112.772 42.0298 112.821C42.6573 112.919 43.2064 113.007 43.6329 113.571C44.3046 114.453 43.7604 115.253 42.9368 115.88C42.0691 116.542 41.1964 116.655 40.814 116.15C40.6963 115.998 40.6375 115.758 40.4953 115.576C40.2159 115.208 39.51 115.007 38.5932 115.699C37.9559 116.184 37.5293 116.919 36.6469 117.591C35.5977 118.39 34.7986 118.228 34.2349 117.483C33.6073 116.66 33.6024 115.924 34.2692 115.032H34.2594Z" fill="#FFF6F6"/>
<path d="M40.9563 118.218C43.1036 115.963 45.8539 116.124 47.7904 117.968C49.7416 119.826 50.0945 122.591 47.9472 124.846C45.8 127.101 42.8781 127.013 40.9367 125.17C39.01 123.336 38.809 120.478 40.9563 118.218V118.218ZM45.5646 122.498C46.2608 121.762 46.2657 120.87 45.6333 120.267C45.0107 119.674 44.1331 119.738 43.4321 120.468C42.6918 121.243 42.6231 122.15 43.2605 122.758C43.8978 123.365 44.8391 123.258 45.5646 122.498V122.498Z" fill="#FFF6F6"/>
<path d="M48.8983 126.205C49.663 124.881 50.3445 123.862 50.9916 123.2C51.727 122.499 52.3398 122.322 53.1634 122.803C53.9429 123.254 54.193 123.925 53.5409 125.053C52.9379 126.097 52.4183 126.921 51.879 127.847C51.3691 128.725 51.423 129.171 51.9231 129.485C52.3153 129.691 52.835 129.593 53.3448 128.784C53.384 128.72 53.4331 128.637 53.4674 128.568C53.9478 127.695 54.3842 126.911 54.9529 125.96C55.6735 124.675 56.5364 124.754 57.2766 125.185C58.0218 125.617 58.5513 126.342 57.8159 127.617C57.2129 128.661 56.7128 129.45 56.154 130.411C55.6735 131.24 55.8843 131.755 56.2863 132.014C56.757 132.264 57.1737 132.088 57.6983 131.22C57.8698 130.921 58.0414 130.622 58.1983 130.318C58.5415 129.725 58.8798 129.102 59.3112 128.396C59.9436 127.264 60.6398 127.132 61.5173 127.641C62.2772 128.083 62.4292 128.7 62.1742 129.676C61.9487 130.563 61.3604 131.657 60.6103 132.99C59.0219 135.696 57.3208 136.608 55.0215 135.279C53.8645 134.608 53.5213 133.75 53.3203 132.882C53.2664 132.632 53.2223 132.514 53.1046 132.451C52.9722 132.372 52.8497 132.392 52.6045 132.47C51.7564 132.755 50.8691 132.877 49.7072 132.206C47.4226 130.882 47.3197 128.926 48.8885 126.21L48.8983 126.205Z" fill="#FFF6F6"/>
<path d="M65.356 138.544C65.1893 137.524 65.3217 136.132 65.5864 134.642C65.8757 133.024 66.1551 131.887 66.5228 131.136C66.9836 130.303 67.572 130.063 68.2828 130.19C68.9201 130.303 69.2682 130.641 69.43 131.171C69.5133 131.475 69.5869 131.607 69.7536 131.636C69.8663 131.656 69.9938 131.583 70.2193 131.431C70.837 130.901 71.5332 130.715 72.548 130.896C73.45 131.058 74.0432 131.435 74.3521 132.092C74.4796 132.367 74.5678 132.519 74.7345 132.548C74.8473 132.568 74.96 132.49 75.1855 132.318C75.8327 131.754 76.5926 131.617 77.6662 131.808C79.7547 132.181 80.3136 134.166 79.892 136.519C79.5929 138.196 79.2742 139.75 78.7693 140.843C78.3918 141.535 77.9261 141.858 76.9505 141.682C75.8425 141.481 75.514 140.687 75.6366 139.892C75.7199 139.324 75.8719 138.574 76.0239 137.823C76.1415 137.279 76.2592 136.74 76.3474 136.23C76.4847 135.475 76.2641 134.951 75.7199 134.857C75.2689 134.774 74.5678 135.117 74.3864 136.112C74.2786 136.715 74.2051 137.225 74.1364 137.74C74.0531 138.309 73.9746 138.858 73.8668 139.481C73.6609 140.628 72.8471 140.951 71.9254 140.785C70.685 140.564 70.3762 139.77 70.4987 138.976C70.5821 138.387 70.739 137.637 70.8958 136.872C71.0086 136.348 71.1263 135.809 71.2145 135.318C71.3469 134.563 71.1116 134.039 70.5674 133.941C70.1163 133.862 69.4349 134.186 69.2584 135.181C69.0476 136.367 68.9544 137.417 68.7485 138.569C68.5426 139.721 67.7288 140.039 66.8611 139.883C65.8806 139.706 65.4835 139.211 65.3511 138.544H65.356Z" fill="#FFF6F6"/>
<path d="M81.4072 136.976C81.2846 134.917 82.2946 131.946 85.8244 131.735C88.5158 131.573 89.9229 133.044 90.0601 135.314C90.1337 136.574 89.5993 137.201 88.4521 137.265C87.3245 137.333 86.0058 137.392 85.2459 137.436C84.9615 137.456 84.888 137.574 84.9027 137.765C84.9272 138.186 85.3832 138.77 86.6039 138.696C87.3883 138.652 87.9864 138.441 88.962 138.383C89.8199 138.334 90.266 138.765 90.3102 139.51C90.3739 140.618 89.3738 141.481 86.9127 141.628C83.0201 141.858 81.5347 139.074 81.4072 136.976ZM87.251 135.098C87.2167 134.564 86.7902 134.113 86.0058 134.157C85.1674 134.206 84.7213 134.789 84.7556 135.323C84.7752 135.647 84.9321 135.716 86.1332 135.642C87.1235 135.583 87.2706 135.461 87.251 135.098Z" fill="#FFF6F6"/>
<path d="M93.1133 128.681C92.9074 127.886 93.3339 127.239 94.2752 126.994C95.2361 126.744 95.9028 127.107 96.1087 127.901C96.3097 128.681 95.9028 129.318 94.9419 129.568C94.0006 129.813 93.3143 129.455 93.1133 128.681ZM95.947 139.383C95.442 138.804 95.0057 137.353 94.5301 135.525C94.084 133.804 93.7261 132.196 93.8683 131.451C93.9909 130.867 94.4076 130.48 95.1282 130.294C95.8489 130.107 96.3784 130.245 96.7804 130.715C97.3098 131.308 97.7315 132.858 98.1776 134.578C98.658 136.431 98.9963 137.883 98.8443 138.672C98.7316 139.236 98.3149 139.598 97.5942 139.785C96.8539 139.976 96.3441 139.834 95.947 139.383V139.383Z" fill="#FFF6F6"/>
<path d="M101.664 137.593C100.992 136.838 100.325 135.607 99.7419 134.234C99.0261 132.543 98.7025 131.435 98.6094 130.582C98.6192 129.768 98.9329 129.283 99.5457 129.023C100.144 128.768 100.629 128.837 101.041 129.219C101.296 129.425 101.428 129.494 101.566 129.435C101.688 129.381 101.757 129.249 101.84 129.008C102.09 128.175 102.561 127.665 103.512 127.263C105.448 126.444 106.998 127.802 107.939 130.018C108.601 131.587 109.169 133.068 109.321 134.269C109.4 135.043 109.189 135.573 108.272 135.96C107.233 136.401 106.527 135.911 106.213 135.171C105.973 134.651 105.698 133.955 105.419 133.244C105.203 132.734 104.997 132.2 104.796 131.724C104.497 131.018 104.012 130.705 103.502 130.92C103.095 131.092 102.693 131.759 103.09 132.695C103.551 133.788 104.076 134.73 104.522 135.784C104.978 136.857 104.453 137.578 103.659 137.911C102.727 138.308 102.149 138.117 101.659 137.598L101.664 137.593Z" fill="#FFF6F6"/>
<path d="M112.165 128.318C110.272 125.862 110.493 123.425 112.116 122.175C112.738 121.695 113.4 121.523 114.165 121.705C114.415 121.778 114.547 121.798 114.699 121.68C114.822 121.587 114.832 121.41 114.793 121.052C114.714 120.508 114.9 120.126 115.386 119.753C116.052 119.239 116.518 119.342 117.111 119.704C117.955 120.263 118.901 121.273 119.808 122.455C120.823 123.773 121.46 124.754 121.783 125.519C122.127 126.435 121.921 127.078 121.362 127.509C120.832 127.916 120.337 127.936 119.813 127.661C119.519 127.529 119.371 127.494 119.249 127.588C119.141 127.671 119.112 127.813 119.092 128.073C119.063 128.916 118.764 129.558 118.111 130.058C116.513 131.24 114.077 130.804 112.16 128.318H112.165ZM117.038 124.494C116.312 123.553 115.376 123.626 114.846 124.033C114.15 124.568 114.121 125.411 114.763 126.244C115.415 127.092 116.249 127.298 116.945 126.759C117.474 126.352 117.783 125.465 117.033 124.494H117.038Z" fill="#FFF6F6"/>
<path d="M126.112 120.64C125.088 120.219 123.843 119.39 122.249 118.17C120.788 117.057 119.705 116.081 119.004 115.238C118.116 114.13 118.249 113.169 120.141 110.693C122.494 107.61 124.47 107.575 125.838 108.619C126.858 109.399 127.191 110.159 127.064 111.144C127.039 111.463 127.019 111.615 127.122 111.693C127.23 111.777 127.333 111.733 127.593 111.546C128.637 110.899 129.593 110.909 130.672 111.733C132.118 112.836 132.569 115.081 130.27 118.091C128.24 120.753 127.387 121.209 126.108 120.64H126.112ZM124.245 111.899C123.651 111.448 123.068 111.674 122.441 112.497C121.896 113.213 121.882 113.419 122.357 113.806C122.529 113.963 122.715 114.125 122.941 114.301C123.352 114.615 123.548 114.576 123.931 114.071C124.686 113.081 124.71 112.262 124.24 111.899H124.245ZM127.966 114.429C127.372 113.978 126.647 114.267 125.74 115.449C125.323 115.998 125.343 116.155 125.755 116.468C126.014 116.664 126.24 116.841 126.51 117.022C127.083 117.434 127.279 117.37 127.917 116.532C128.544 115.713 128.613 114.924 127.961 114.424L127.966 114.429Z" fill="#FFF6F6"/>
<path d="M130.137 109.751C127.343 108.418 126.436 106.143 127.313 104.295C127.652 103.589 128.166 103.133 128.931 102.947C129.186 102.898 129.314 102.854 129.397 102.682C129.461 102.545 129.392 102.383 129.196 102.079C128.877 101.633 128.872 101.206 129.137 100.652C129.5 99.8924 129.961 99.7748 130.652 99.8287C131.652 99.9463 132.956 100.417 134.299 101.059C135.8 101.775 136.814 102.363 137.447 102.898C138.167 103.559 138.275 104.226 137.971 104.864C137.682 105.467 137.251 105.707 136.662 105.702C136.339 105.717 136.192 105.751 136.128 105.893C136.069 106.016 136.108 106.158 136.207 106.398C136.564 107.163 136.584 107.869 136.231 108.614C135.339 110.394 132.966 111.104 130.137 109.756V109.751ZM132.75 104.133C131.681 103.623 130.877 104.109 130.588 104.712C130.211 105.506 130.569 106.271 131.515 106.722C132.481 107.182 133.314 106.986 133.696 106.192C133.986 105.589 133.858 104.658 132.75 104.133V104.133Z" fill="#FFF6F6"/>
<path d="M134.79 99.6723C131.765 98.9173 130.549 96.4464 131.196 93.8481C131.848 91.2301 134.079 89.5633 137.104 90.3183C140.129 91.0733 141.491 93.6618 140.844 96.2552C140.202 98.8339 137.815 100.427 134.79 99.6723V99.6723ZM136.241 93.549C135.256 93.3039 134.481 93.7402 134.265 94.5933C134.059 95.4267 134.545 96.1621 135.525 96.4072C136.564 96.667 137.388 96.2797 137.604 95.4267C137.815 94.5736 137.261 93.804 136.241 93.549V93.549Z" fill="#FFF6F6"/>
<path d="M33.5044 72.5667C32.1023 72.2579 28.6461 71.4147 27.9548 71.2627C27.5234 71.1695 27.391 71.2529 27.3224 71.5519L27.1557 72.2971C27.0037 72.9884 26.5036 73.4639 25.1604 73.1698C23.4445 72.7874 23.1503 71.9834 23.9641 68.3016C24.778 64.6247 25.3859 63.9923 27.1066 64.3747C28.4499 64.6737 28.6951 65.3356 28.548 66.0072L28.3764 66.772C28.3127 67.071 28.396 67.2279 28.8225 67.3211C29.5138 67.473 33.0093 68.1496 34.4065 68.4584C36.088 68.831 36.4361 69.8066 36.1763 70.9832C35.9115 72.1795 35.1762 72.9344 33.4946 72.5667H33.5044Z" fill="#FFF6F6"/>
<path d="M36.3674 65.6937C35.3624 65.6104 34.0289 65.1789 31.8375 64.2229C30.4893 63.6346 28.7048 62.8404 27.2929 61.8697C26.332 61.203 26.0574 60.497 26.4643 59.5509C26.8908 58.5704 27.5821 58.3694 28.6509 58.8351C29.1411 59.0508 29.6706 59.3204 30.1265 59.5165C30.5285 59.693 30.7148 59.6489 30.7786 59.5067C30.8423 59.3646 30.7932 59.2812 30.6952 59.0753C30.3128 58.3252 30.303 57.634 30.6511 56.8251C31.4502 54.9817 33.5043 54.918 35.6958 55.8691C37.2548 56.5456 38.6912 57.232 39.6276 57.9968C40.2208 58.5066 40.4267 59.0312 40.0345 59.9431C39.5834 60.9775 38.7353 61.1099 37.9999 60.7863C37.4411 60.5853 36.7498 60.2617 36.034 59.9333C35.5487 59.7028 35.0486 59.4626 34.5927 59.2665C33.8916 58.9626 33.323 59.0704 33.1023 59.5754C32.9259 59.9774 33.0778 60.7324 34.0093 61.1393C35.1124 61.6197 36.1272 61.9335 37.1959 62.3992C38.2647 62.865 38.3823 63.7474 38.0392 64.5367C37.6372 65.4682 37.0832 65.728 36.3723 65.6888L36.3674 65.6937Z" fill="#FFF6F6"/>
<path d="M40.0985 56.6633C39.4808 56.4917 38.6768 56.0799 37.3286 55.2023C36 54.3346 34.9803 53.5158 34.3675 52.7756C33.7056 52.001 33.6076 51.4568 33.9263 50.9616C34.2106 50.5302 34.4949 50.5106 34.7401 50.5547C35.0979 50.6724 35.2009 50.6528 35.2843 50.5204C35.3676 50.393 35.4068 50.2606 35.4019 50.0939C35.2843 49.4713 35.1813 48.9222 35.5686 48.329C36.1716 47.3975 37.108 47.6426 37.9757 48.2064C38.8876 48.7996 39.2896 49.5889 38.9464 50.1184C38.8435 50.2802 38.6376 50.4175 38.5101 50.6087C38.2601 50.9911 38.3042 51.7313 39.2651 52.354C39.9367 52.7903 40.7751 52.9472 41.7016 53.5502C42.8047 54.2708 42.9224 55.0748 42.4125 55.8592C41.8487 56.7221 41.1575 56.9819 40.0936 56.6535L40.0985 56.6633Z" fill="#FFF6F6"/>
<path d="M40.6087 49.3876C38.3045 47.2893 38.4124 44.5341 40.2165 42.5584C42.0353 40.568 44.7905 40.1562 47.0898 42.2594C49.394 44.3576 49.3645 47.2844 47.5604 49.2602C45.771 51.2212 42.9129 51.4908 40.6136 49.3876H40.6087ZM44.7905 44.691C44.0404 44.0096 43.1482 44.0194 42.555 44.6714C41.9765 45.3087 42.0549 46.1814 42.805 46.8677C43.5943 47.5884 44.5062 47.6423 45.0994 46.9952C45.6926 46.3432 45.57 45.4019 44.7905 44.6959V44.691Z" fill="#FFF6F6"/>
<path d="M48.0113 41.5243C47.1583 40.2545 46.5406 39.1956 46.2317 38.318C45.9278 37.3473 46.0356 36.7247 46.8298 36.1903C47.575 35.6903 48.2908 35.7638 49.0163 36.8424C49.688 37.8425 50.1978 38.6759 50.7959 39.5633C51.3597 40.4065 51.7863 40.5585 52.2863 40.2447C52.6393 39.9849 52.7815 39.475 52.2863 38.6563C52.2422 38.5926 52.1932 38.5141 52.149 38.4504C51.5803 37.6366 51.0607 36.9012 50.4626 35.9697C49.6242 34.7588 50.0753 34.0185 50.791 33.5381C51.5068 33.0576 52.3893 32.9008 53.2129 34.1264C53.8845 35.1265 54.3748 35.9256 54.9925 36.8473C55.5269 37.6415 56.0809 37.6807 56.4878 37.4307C56.9241 37.1169 56.9437 36.6659 56.3946 35.8128C56.2034 35.5285 56.0122 35.2392 55.8014 34.9647C55.419 34.3911 55.0072 33.8175 54.566 33.1214C53.8257 32.0526 54.0169 31.3712 54.8552 30.8074C55.5857 30.3171 56.2083 30.4544 56.9731 31.1162C57.6693 31.7094 58.3948 32.7194 59.2626 33.9793C60.9932 36.5923 61.0667 38.5239 58.8606 40.0045C57.7477 40.7497 56.826 40.681 55.9583 40.48C55.7083 40.4163 55.5857 40.4065 55.4778 40.48C55.3504 40.5634 55.3161 40.681 55.2768 40.936C55.1592 41.8233 54.8797 42.6763 53.7669 43.4215C51.5754 44.8923 49.7713 44.1226 48.0211 41.5194L48.0113 41.5243Z" fill="#FFF6F6"/>
<path d="M64.7488 35.4993C64.185 34.6315 63.7437 33.3029 63.3908 31.8371C63.0035 30.2389 62.8025 29.0868 62.8368 28.2534C62.9201 27.3072 63.3614 26.8463 64.0673 26.6747C64.6997 26.5228 65.1508 26.6895 65.5087 27.1111C65.7048 27.3562 65.8273 27.4493 65.994 27.4052C66.1068 27.3807 66.195 27.2581 66.3372 27.0277C66.6902 26.2924 67.2491 25.8413 68.2541 25.6011C69.1463 25.3854 69.8425 25.4932 70.3867 25.9688C70.6122 26.1698 70.7543 26.2727 70.921 26.2335C71.0338 26.209 71.1024 26.0913 71.2397 25.8413C71.6025 25.0667 72.2447 24.6353 73.3037 24.3755C75.3676 23.8754 76.6766 25.4638 77.2403 27.7876C77.6424 29.4398 77.9757 30.9939 77.9561 32.1999C77.8924 32.9843 77.5933 33.4696 76.6275 33.7C75.5294 33.9648 74.9166 33.3667 74.7058 32.5921C74.5538 32.0381 74.392 31.2929 74.2302 30.5428C74.1174 29.9986 74.0047 29.4545 73.8821 28.9544C73.7008 28.2092 73.2938 27.817 72.7546 27.9494C72.3084 28.0573 71.8035 28.6505 72.0437 29.6359C72.1859 30.2291 72.328 30.7291 72.4702 31.2243C72.6222 31.7783 72.7742 32.3126 72.9212 32.9254C73.1958 34.0579 72.5781 34.6805 71.6711 34.9012C70.4455 35.2002 69.8474 34.5972 69.6366 33.8226C69.4797 33.249 69.3179 32.5038 69.1512 31.739C69.0434 31.2145 68.9306 30.6703 68.8129 30.1849C68.6315 29.4398 68.205 29.0525 67.6658 29.1848C67.2196 29.2927 66.7294 29.8663 66.9696 30.8468C67.2539 32.0185 67.5922 33.0186 67.8668 34.1511C68.1413 35.2835 67.5236 35.9062 66.6705 36.1121C65.7048 36.3474 65.141 36.0483 64.7488 35.4944V35.4993Z" fill="#FFF6F6"/>
<path d="M78.6516 28.7392C78.632 26.6752 79.7939 23.7582 83.3335 23.7288C86.0299 23.7043 87.3634 25.2437 87.383 27.5184C87.3928 28.7784 86.8241 29.3765 85.6769 29.3863C84.5493 29.3961 83.2306 29.3863 82.4658 29.3961C82.1814 29.3961 82.103 29.5138 82.103 29.705C82.103 30.1266 82.5344 30.7345 83.7551 30.7247C84.5395 30.7198 85.1474 30.5384 86.123 30.5335C86.9859 30.5286 87.4075 30.9796 87.4124 31.7297C87.4222 32.8377 86.378 33.6515 83.912 33.6711C80.0096 33.7054 78.6663 30.8472 78.6516 28.7441V28.7392ZM84.5837 27.1606C84.5837 26.6262 84.1719 26.1506 83.3874 26.1555C82.5442 26.1604 82.0736 26.7193 82.0785 27.2586C82.0785 27.5822 82.2354 27.6606 83.4414 27.6508C84.4366 27.641 84.5886 27.5282 84.5837 27.1606V27.1606Z" fill="#FFF6F6"/>
<path d="M91.1432 33.4794C90.9422 32.7342 91.1874 31.2438 91.5698 29.3907C91.9277 27.6503 92.3101 26.0472 92.766 25.4392C93.1337 24.9686 93.6778 24.8068 94.4083 24.9539C95.1388 25.101 95.5555 25.4638 95.7075 26.057C95.9232 26.8217 95.6192 28.4004 95.2663 30.1407C94.8839 32.0135 94.5456 33.4695 94.0651 34.1118C93.7171 34.5677 93.1827 34.7099 92.4522 34.5628C91.7021 34.4108 91.305 34.0578 91.153 33.4794H91.1432ZM93.3003 22.6203C93.467 21.8163 94.1289 21.4241 95.0849 21.6202C96.0605 21.8212 96.4968 22.434 96.335 23.2429C96.1732 24.0322 95.5261 24.4244 94.5554 24.2283C93.5994 24.0322 93.1435 23.4145 93.3003 22.6252V22.6203Z" fill="#FFF6F6"/>
<path d="M95.7461 34.0723C95.7706 33.0624 96.1236 31.7044 96.6334 30.3071C97.2659 28.5815 97.7806 27.5519 98.3003 26.8656C98.8641 26.2773 99.423 26.1351 100.051 26.3655C100.663 26.591 100.972 26.9685 101.011 27.5323C101.056 27.8559 101.109 27.9932 101.252 28.0471C101.379 28.0912 101.516 28.0471 101.747 27.9245C102.497 27.4882 103.188 27.4343 104.159 27.7873C106.135 28.5079 106.34 30.5621 105.517 32.8221C104.933 34.4204 104.335 35.8911 103.629 36.8765C103.159 37.4991 102.644 37.7393 101.708 37.3962C100.649 37.0089 100.467 36.1705 100.742 35.4156C100.923 34.8714 101.193 34.1752 101.477 33.4644C101.668 32.9447 101.884 32.4103 102.061 31.925C102.325 31.2092 102.183 30.6454 101.663 30.4542C101.252 30.3022 100.502 30.518 100.153 31.469C99.7465 32.5819 99.4867 33.6261 99.0945 34.7047C98.6925 35.798 97.8199 35.9695 97.0109 35.6754C96.0599 35.3273 95.7657 34.7929 95.7608 34.0772L95.7461 34.0723Z" fill="#FFF6F6"/>
<path d="M109.051 35.3274C110.831 32.7928 113.223 32.2781 114.9 33.4498C115.542 33.9008 115.905 34.4793 115.959 35.2686C115.959 35.5284 115.988 35.6608 116.145 35.7736C116.273 35.8618 116.439 35.8177 116.773 35.6755C117.268 35.4402 117.69 35.5039 118.19 35.852C118.876 36.3374 118.92 36.808 118.748 37.4845C118.464 38.4552 117.783 39.6564 116.93 40.8771C115.974 42.24 115.228 43.1371 114.591 43.6764C113.817 44.2794 113.145 44.2745 112.566 43.8676C112.017 43.4852 111.856 43.0195 111.958 42.4361C111.998 42.1125 111.988 41.9654 111.86 41.8772C111.753 41.7988 111.601 41.8135 111.351 41.8674C110.542 42.0929 109.836 41.9949 109.164 41.5242C107.556 40.3525 107.252 37.8915 109.051 35.3274V35.3274ZM114.155 38.8376C114.836 37.8669 114.493 36.9943 113.944 36.6119C113.223 36.1069 112.414 36.3325 111.806 37.1904C111.194 38.0679 111.248 38.921 111.963 39.4259C112.512 39.8132 113.449 39.8377 114.15 38.8376H114.155Z" fill="#FFF6F6"/>
<path d="M118.044 46.2898C118.686 45.3877 119.774 44.3631 121.319 43.0835C122.731 41.9118 123.927 41.0735 124.907 40.5832C126.187 39.9704 127.094 40.3136 129.079 42.7109C131.555 45.7015 131.143 47.633 129.815 48.7263C128.829 49.545 128.011 49.697 127.079 49.3538C126.775 49.2558 126.633 49.2018 126.53 49.2901C126.427 49.3734 126.442 49.4862 126.564 49.7803C126.957 50.9471 126.736 51.8737 125.687 52.7415C124.29 53.8984 122 53.8347 119.583 50.9177C117.451 48.339 117.196 47.4075 118.034 46.2898H118.044ZM123.677 49.496C124.25 49.0204 124.133 48.2508 123.182 47.0987C122.74 46.5692 122.584 46.5545 122.182 46.883C121.932 47.0889 121.711 47.2703 121.471 47.4958C120.936 47.9615 120.961 48.1674 121.628 48.9763C122.284 49.7705 123.035 50.0206 123.672 49.496H123.677ZM126.981 46.4368C127.555 45.9613 127.466 45.3436 126.805 44.5445C126.231 43.8532 126.035 43.7944 125.55 44.167C125.358 44.2993 125.157 44.4415 124.937 44.6229C124.54 44.9514 124.535 45.1573 124.937 45.6426C125.731 46.5986 126.525 46.8094 126.981 46.4319V46.4368Z" fill="#FFF6F6"/>
<path d="M127.344 52.6338C130.089 51.2022 132.452 51.8445 133.398 53.6584C133.761 54.3545 133.815 55.036 133.501 55.7616C133.383 55.992 133.344 56.1244 133.433 56.291C133.501 56.4283 133.673 56.4675 134.036 56.492C134.585 56.5067 134.928 56.7568 135.212 57.301C135.599 58.0461 135.418 58.4874 134.957 59.007C134.261 59.7375 133.099 60.4925 131.78 61.1837C130.305 61.9534 129.226 62.4094 128.417 62.5908C127.456 62.7721 126.858 62.4535 126.53 61.826C126.221 61.2328 126.29 60.7425 126.647 60.2768C126.829 60.0071 126.888 59.8699 126.819 59.7326C126.755 59.6149 126.618 59.5561 126.368 59.4924C125.544 59.3159 124.966 58.909 124.583 58.1785C123.696 56.3989 124.554 54.0751 127.339 52.624L127.344 52.6338ZM130.261 58.1001C131.31 57.551 131.408 56.6195 131.099 56.0263C130.692 55.2468 129.868 55.0703 128.937 55.5606C127.986 56.0557 127.643 56.8401 128.05 57.6196C128.358 58.2128 129.177 58.6688 130.266 58.105L130.261 58.1001Z" fill="#FFF6F6"/>
<path d="M132.25 62.2672C135.251 61.4142 137.535 62.9486 138.266 65.5225C139.006 68.1159 137.903 70.675 134.907 71.528C131.907 72.3811 129.436 70.8172 128.701 68.2434C127.97 65.6891 129.25 63.1153 132.245 62.2623L132.25 62.2672ZM134.05 68.2973C135.025 68.0178 135.481 67.253 135.241 66.4049C135.006 65.5764 134.216 65.1842 133.241 65.4636C132.211 65.7578 131.687 66.503 131.927 67.3462C132.167 68.1943 133.035 68.5816 134.045 68.2924L134.05 68.2973Z" fill="#FFF6F6"/>
<path d="M32.6025 82.4558C32.5535 84.1864 31.0631 85.5493 29.2639 85.5003C27.4696 85.4463 26.0577 84.005 26.1067 82.2744C26.1557 80.5438 28.0089 79.6172 29.7983 79.6712C31.5926 79.7251 32.6466 80.7301 32.5976 82.4607L32.6025 82.4558Z" fill="#FFF6F6"/>
<path d="M139.89 80.3425C139.841 82.0731 138.35 83.436 136.551 83.387C134.757 83.3331 133.345 81.8917 133.394 80.1562C133.443 78.4257 135.296 77.4991 137.085 77.553C138.88 77.6069 139.934 78.612 139.885 80.3425H139.89Z" fill="#FFF6F6"/>
<path d="M83.05 110.316C70.024 110.316 55.189 106.698 53.1054 97.4717C49.4874 81.9994 55.0027 69.0666 73.9117 64.3602C77.7994 63.3649 79.0691 60.8303 80.785 57.2123C81.3292 55.9474 81.9616 54.4963 83.2265 53.957" stroke="#FFF6F6" stroke-width="4.16713" stroke-linecap="round" stroke-linejoin="round"/>
<path d="M83.501 53.957C84.7658 54.5012 85.31 55.9474 85.9424 57.2123C87.5701 60.8303 88.9281 63.4532 92.8157 64.3602C111.725 68.9734 117.152 81.9994 113.622 97.4717C111.362 106.698 95.0758 110.316 83.6775 110.316" stroke="#FFF6F6" stroke-width="4.16713" stroke-linecap="round" stroke-linejoin="round"/>
<path d="M77.8925 69.8809C71.1957 75.0383 66.7639 84.3531 68.1219 92.7658" stroke="#FFF6F6" stroke-width="4.16713" stroke-linecap="round" stroke-linejoin="round"/>
<path d="M88.1143 69.8809C94.8111 75.0383 99.2429 84.3531 97.9732 92.7658" stroke="#FFF6F6" stroke-width="4.16713" stroke-linecap="round" stroke-linejoin="round"/>
<path d="M82.5059 78.7441C83.5011 81.0042 84.7659 86.2548 83.2314 90.9563" stroke="#FFF6F6" stroke-width="4.16713" stroke-linecap="round" stroke-linejoin="round"/>
</svg>
