<svg width="179" height="178" viewBox="0 0 179 178" fill="none" xmlns="http://www.w3.org/2000/svg">
<path d="M178.047 89.1006L155.617 106.872L166.168 133.485L137.839 137.628L133.689 165.957L107.083 155.406L89.3115 177.836L71.5403 155.406L44.9338 165.957L40.7843 137.628L12.4549 133.478L23.0064 106.872L0.576172 89.1006L23.0064 71.3294L12.4549 44.7229L40.7843 40.5733L44.9338 12.244L71.5403 22.7954L89.3115 0.365234L107.083 22.7954L133.696 12.244L137.839 40.5733L166.168 44.7229L155.617 71.3294L178.047 89.1006Z" fill="#79EFB7"/>
<path d="M36.0099 100.65C36.5656 100.188 37.928 99.8075 39.6579 99.3997C41.2802 99.0142 42.795 98.714 43.4897 98.8619C44.0364 98.9918 44.386 99.3862 44.5473 100.067C44.7086 100.749 44.5652 101.242 44.1171 101.605C43.5479 102.089 42.0869 102.452 40.4646 102.837C38.7212 103.249 37.3499 103.536 36.6149 103.379C36.0906 103.263 35.7544 102.864 35.5976 102.183C35.4318 101.484 35.5797 101.009 36.0099 100.65V100.65ZM46.0979 98.212C46.8464 98.0328 47.4424 98.4451 47.653 99.3369C47.8682 100.242 47.5141 100.861 46.7657 101.04C46.0307 101.215 45.4436 100.82 45.2285 99.9106C45.0179 99.0187 45.3674 98.3868 46.0979 98.212Z" fill="#042F1A"/>
<path d="M37.5784 106.086C38.2955 105.468 39.4607 104.863 40.7603 104.338C42.3558 103.693 43.4 103.411 44.2022 103.339C44.9641 103.361 45.4167 103.662 45.6498 104.244C45.8783 104.809 45.8066 105.261 45.4391 105.642C45.2419 105.875 45.1792 106.001 45.233 106.131C45.2778 106.247 45.4033 106.315 45.6318 106.395C46.4071 106.642 46.8777 107.09 47.2407 107.986C47.9802 109.815 46.6805 111.244 44.5876 112.091C43.1087 112.687 41.706 113.194 40.5811 113.319C39.8506 113.382 39.3621 113.171 39.0125 112.307C38.6181 111.325 39.0887 110.671 39.7878 110.388C40.2808 110.169 40.9351 109.927 41.6074 109.676C42.0914 109.483 42.5933 109.295 43.046 109.116C43.7092 108.847 44.014 108.399 43.8168 107.915C43.6644 107.534 43.0415 107.144 42.1631 107.498C41.1323 107.915 40.2405 108.39 39.2456 108.788C38.2327 109.196 37.565 108.694 37.2647 107.946C36.9107 107.063 37.0989 106.525 37.5919 106.073L37.5784 106.086Z" fill="#042F1A"/>
<path d="M43.969 118.186C44.6502 117.308 46.0261 116.268 47.3302 115.381C48.5178 114.574 49.8175 113.713 51.1351 113.162C52.0986 112.79 52.7798 112.934 53.3042 113.704C53.8868 114.565 53.6582 115.152 52.5468 115.909C51.6191 116.586 50.4046 117.321 49.3424 117.957C48.6299 118.379 47.989 118.769 47.5409 119.073C46.9941 119.445 46.9314 119.705 47.0748 120.109C47.2585 120.503 47.1689 120.826 46.5504 121.247C45.793 121.762 44.695 121.964 43.8525 120.718C43.2385 119.813 43.3954 118.926 43.9735 118.186H43.969Z" fill="#042F1A"/>
<path d="M49.1319 120.387C51.2741 118.401 53.8376 118.71 55.5451 120.548C57.266 122.399 57.4318 125.007 55.2941 126.992C53.1564 128.978 50.4226 128.727 48.7152 126.885C47.0211 125.061 46.9942 122.367 49.1364 120.382L49.1319 120.387ZM53.1967 124.662C53.8914 124.017 53.9496 123.179 53.3895 122.578C52.8427 121.987 52.0181 121.995 51.319 122.641C50.584 123.322 50.463 124.169 51.0232 124.774C51.5834 125.379 52.4752 125.334 53.1967 124.667V124.662Z" fill="#042F1A"/>
<path d="M56.0552 129.264C56.705 128.408 57.1263 127.938 57.4624 127.494C57.6372 127.266 57.673 127.068 57.5431 126.88C57.2966 126.58 57.068 126.051 57.7492 125.15C58.3453 124.366 59.0265 124.294 59.5105 124.662C59.6674 124.783 59.7839 124.778 60.0528 124.509C60.1648 124.393 60.2769 124.272 60.3754 124.169C60.9177 123.635 61.5138 123.703 62.1009 124.146C62.8314 124.698 62.912 125.213 62.3429 126.351C62.2219 126.598 62.2263 126.714 62.4549 126.885L63.0286 127.319C63.7008 127.826 63.9338 128.408 63.2526 129.309C62.5266 130.268 61.823 130.161 61.2225 129.704L60.6085 129.237C60.4516 129.116 60.3351 129.099 60.2051 129.269C59.9094 129.627 59.6405 129.986 59.4433 130.246C59.3671 130.344 59.3178 130.443 59.273 130.501C58.7666 131.174 58.8965 131.563 59.2685 131.846C59.5105 132.029 59.6315 132.052 59.8152 132.191C60.3575 132.603 60.4382 133.181 59.8959 133.894C59.2371 134.768 58.1571 135.095 56.5123 133.849C54.6838 132.464 54.8676 130.828 56.0552 129.255V129.264Z" fill="#042F1A"/>
<path d="M60.6541 135.162C61.0395 134.454 61.7565 134.557 62.3212 134.758C63.2937 135.144 63.8987 135.345 64.1183 134.938C64.562 134.117 62.0568 132.948 63.2534 130.738C64.1497 129.085 66.4084 129.206 68.2504 130.205C69.4962 130.877 69.6889 131.576 69.3035 132.284C68.945 132.948 68.3355 132.943 67.7977 132.733C66.9462 132.352 66.4801 132.302 66.2919 132.652C65.8662 133.441 68.4117 134.615 67.251 136.757C66.2605 138.586 63.6388 138.308 61.6848 137.25C60.4569 136.582 60.2597 135.888 60.6541 135.162V135.162Z" fill="#042F1A"/>
<path d="M71.6254 136.897C72.3828 134.074 74.7222 132.976 77.1422 133.626C79.5847 134.28 81.1129 136.4 80.3555 139.223C79.5981 142.047 77.1512 143.283 74.7266 142.629C72.32 141.984 70.868 139.716 71.6254 136.897ZM77.3394 138.358C77.5859 137.44 77.1915 136.705 76.3938 136.489C75.614 136.279 74.9193 136.727 74.6729 137.641C74.4129 138.609 74.758 139.389 75.5557 139.604C76.3535 139.819 77.084 139.308 77.3394 138.358V138.358Z" fill="#042F1A"/>
<path d="M82.0849 141.75C82.2328 140.164 82.4658 139.411 82.5555 138.429C82.5868 138.107 82.4927 137.954 82.1611 137.851C81.5964 137.744 81.3499 137.291 81.462 136.291C81.5516 135.346 81.8698 135.032 82.43 134.996C82.8288 134.978 82.8916 134.893 83.0126 134.346C83.2456 133.181 84.2585 132.177 86.2931 132.366C87.9155 132.518 88.2157 132.962 88.1485 133.71C88.1037 134.176 87.8348 134.562 87.1401 134.499C86.571 134.445 86.1587 134.588 86.1183 135.014C86.0914 135.283 86.2349 135.332 86.6785 135.373C87.5704 135.458 87.9289 135.866 87.8303 136.937C87.7048 138.093 87.3687 138.389 86.441 138.299C86.1004 138.268 85.9973 138.42 85.9749 138.689C85.8629 139.868 85.7957 141.176 85.724 141.943C85.5671 143.637 84.8904 144.296 83.7117 144.184C82.4076 144.063 81.946 143.242 82.0849 141.746V141.75Z" fill="#042F1A"/>
<path d="M91.5676 142.983C91.4511 142.001 92.1457 141.598 92.8493 141.423C94.0414 141.141 94.7898 140.746 94.7226 140.137C94.5837 138.963 91.4286 139.276 91.0746 136.269C90.7923 134.028 92.9658 132.527 95.3321 132.249C96.8827 132.065 97.5326 132.549 97.6536 133.567C97.7611 134.494 97.1964 134.92 96.5645 135.064C95.5427 135.274 95.0229 135.624 95.0811 136.121C95.2111 137.242 98.4513 136.829 98.8053 139.854C99.1056 142.4 96.6183 143.991 93.9114 144.309C92.3608 144.493 91.6841 143.955 91.5721 142.978L91.5676 142.983Z" fill="#042F1A"/>
<path d="M100.989 141.755C100.666 141.248 100.352 140.46 99.9536 139.008C99.5592 137.573 99.3576 136.363 99.3889 135.463C99.4068 134.508 99.6758 134.064 100.209 133.916C100.675 133.786 100.89 133.952 101.034 134.136C101.208 134.441 101.298 134.49 101.437 134.454C101.576 134.418 101.688 134.347 101.782 134.23C102.087 133.719 102.356 133.271 102.997 133.096C104 132.818 104.502 133.576 104.762 134.508C105.031 135.494 104.825 136.296 104.256 136.453C104.081 136.502 103.853 136.471 103.646 136.529C103.23 136.641 102.804 137.188 103.091 138.228C103.292 138.954 103.781 139.581 104.054 140.585C104.381 141.777 103.96 142.414 103.113 142.647C102.181 142.902 101.536 142.651 100.993 141.759L100.989 141.755Z" fill="#042F1A"/>
<path d="M104.175 130.671C103.884 129.959 104.202 129.304 105.049 128.964C105.914 128.614 106.577 128.87 106.864 129.582C107.146 130.281 106.846 130.922 105.981 131.272C105.134 131.617 104.453 131.37 104.17 130.671H104.175ZM108.119 140.271C107.576 139.796 106.998 138.501 106.331 136.856C105.703 135.31 105.174 133.862 105.215 133.15C105.259 132.589 105.596 132.182 106.245 131.922C106.895 131.662 107.402 131.724 107.832 132.11C108.397 132.598 108.979 133.988 109.602 135.529C110.274 137.192 110.767 138.501 110.722 139.254C110.687 139.791 110.342 140.181 109.696 140.441C109.033 140.71 108.54 140.638 108.119 140.266V140.271Z" fill="#042F1A"/>
<path d="M112.653 137.632C112.219 137.215 111.739 136.52 111.013 135.198C110.301 133.894 109.821 132.765 109.646 131.882C109.445 130.95 109.601 130.457 110.09 130.188C110.516 129.955 110.758 130.067 110.941 130.21C111.183 130.466 111.282 130.493 111.407 130.425C111.533 130.358 111.627 130.264 111.694 130.125C111.874 129.556 112.03 129.063 112.613 128.745C113.523 128.247 114.191 128.861 114.652 129.713C115.145 130.609 115.127 131.434 114.607 131.721C114.45 131.806 114.217 131.833 114.029 131.936C113.653 132.142 113.361 132.769 113.881 133.715C114.244 134.374 114.863 134.871 115.365 135.785C115.961 136.87 115.696 137.587 114.926 138.008C114.079 138.474 113.393 138.38 112.658 137.636L112.653 137.632Z" fill="#042F1A"/>
<path d="M116.606 131.841C114.805 129.565 114.984 127.275 116.49 126.087C117.068 125.63 117.686 125.459 118.408 125.621C118.641 125.688 118.766 125.701 118.91 125.589C119.022 125.5 119.031 125.334 118.99 124.998C118.91 124.491 119.08 124.128 119.528 123.77C120.147 123.281 120.581 123.371 121.142 123.703C121.935 124.218 122.836 125.15 123.705 126.248C124.673 127.472 125.278 128.386 125.592 129.099C125.928 129.955 125.74 130.56 125.22 130.967C124.727 131.357 124.265 131.38 123.772 131.129C123.494 131.008 123.356 130.976 123.243 131.066C123.145 131.142 123.118 131.281 123.1 131.523C123.082 132.312 122.809 132.917 122.204 133.396C120.72 134.526 118.43 134.14 116.606 131.837V131.841ZM121.128 128.198C120.438 127.324 119.56 127.4 119.071 127.79C118.426 128.301 118.408 129.09 119.022 129.865C119.645 130.654 120.429 130.833 121.074 130.322C121.567 129.932 121.841 129.099 121.133 128.198H121.128Z" fill="#042F1A"/>
<path d="M124.62 125.24C122.464 123.349 122.54 120.651 124.136 118.831C125.256 117.55 126.26 117.334 127.053 118.029C127.376 118.311 127.546 118.607 127.569 118.912C127.6 119.392 127.259 119.781 126.802 120.409C126.264 121.13 126.206 121.959 126.972 122.632C127.712 123.282 128.554 123.111 129.146 122.488C129.706 121.933 129.998 121.543 130.477 121.511C130.804 121.489 131.158 121.659 131.467 121.928C132.14 122.52 132.234 123.721 131.006 125.123C129.433 126.916 126.825 127.176 124.611 125.24H124.62Z" fill="#042F1A"/>
<path d="M133.431 120.453C132.503 120.256 131.315 119.691 129.393 118.54C128.21 117.832 126.65 116.877 125.449 115.806C124.638 115.071 124.463 114.381 124.961 113.552C125.476 112.691 126.144 112.588 127.08 113.148C127.511 113.404 127.968 113.722 128.371 113.959C128.725 114.17 128.904 114.152 128.976 114.031C129.048 113.91 129.016 113.825 128.949 113.619C128.685 112.875 128.756 112.23 129.178 111.521C130.141 109.908 132.059 110.092 133.982 111.239C135.353 112.059 136.599 112.866 137.384 113.691C137.872 114.233 138.002 114.748 137.527 115.55C136.985 116.46 136.178 116.478 135.533 116.093C135.035 115.837 134.43 115.456 133.812 115.062C133.39 114.789 132.951 114.506 132.552 114.269C131.938 113.901 131.396 113.933 131.127 114.381C130.917 114.735 130.966 115.452 131.782 115.94C132.75 116.518 133.65 116.931 134.591 117.495C135.528 118.056 135.533 118.894 135.116 119.584C134.627 120.399 134.085 120.574 133.426 120.453H133.431Z" fill="#042F1A"/>
<path d="M135.121 110.281C132.373 109.335 131.293 107.309 131.916 105.494C132.158 104.8 132.588 104.32 133.279 104.069C133.512 103.998 133.628 103.944 133.686 103.773C133.731 103.639 133.651 103.496 133.435 103.231C133.095 102.846 133.041 102.451 133.229 101.909C133.485 101.165 133.902 101.004 134.556 100.981C135.502 100.981 136.765 101.286 138.087 101.743C139.562 102.25 140.566 102.693 141.211 103.124C141.955 103.666 142.125 104.271 141.906 104.898C141.7 105.49 141.323 105.759 140.772 105.817C140.472 105.866 140.342 105.916 140.292 106.05C140.252 106.167 140.301 106.301 140.418 106.512C140.83 107.184 140.924 107.843 140.673 108.573C140.032 110.326 137.895 111.235 135.116 110.276L135.121 110.281ZM136.963 104.773C135.914 104.41 135.215 104.948 135.009 105.539C134.74 106.319 135.152 106.991 136.084 107.314C137.034 107.641 137.792 107.372 138.06 106.592C138.267 106.001 138.047 105.145 136.963 104.773V104.773Z" fill="#042F1A"/>
<path d="M136.976 99.6637C136.384 99.7219 135.281 99.6592 134.224 99.471C133.215 99.2962 132.404 99.0587 131.898 98.6239C131.593 98.2789 131.463 97.7814 131.593 97.0419C131.714 96.3518 131.992 95.9126 132.391 95.7064C133.005 95.4331 133.87 95.4734 134.892 95.6527C135.967 95.8409 136.989 96.1501 137.527 96.4056C138.329 96.7999 138.575 97.266 138.405 98.234C138.239 99.1886 137.849 99.5382 136.971 99.6547L136.976 99.6637ZM140.677 100.771C139.44 100.551 138.719 99.5875 138.943 98.3192C139.163 97.0644 140.171 96.4056 141.408 96.6207C142.663 96.8403 143.402 97.8083 143.183 99.0631C142.958 100.336 141.932 100.99 140.682 100.771H140.677Z" fill="#042F1A"/>
<path d="M44.6651 80.4189C43.2982 80.2441 41.761 79.8721 40.6272 79.5405C39.4754 79.2044 38.0592 78.7338 36.7685 78.1153C35.5406 77.461 35.4196 76.5288 36.177 73.9295C36.9881 71.142 38.8704 69.7482 41.4876 70.5101C44.1049 71.2719 44.9429 73.459 44.2438 75.8521L44.1049 76.3361C44.0332 76.5781 44.2035 76.6991 44.4276 76.7664C44.9116 76.9053 45.2118 76.9591 45.902 77.1607C46.6773 77.3848 47.2554 77.8375 46.9238 78.9713C46.6011 80.0738 45.9961 80.5488 44.6696 80.4233L44.6651 80.4189ZM40.7258 73.7592C39.9191 73.5217 39.4978 74.0012 39.1751 75.0992C39.0586 75.4936 39.099 75.6191 40.3045 75.9686C41.165 76.2196 41.3039 76.1882 41.4204 75.7894C41.7476 74.669 41.5325 73.9923 40.7258 73.7547V73.7592Z" fill="#042F1A"/>
<path d="M47.8569 71.4194C46.7544 71.276 45.1635 70.6217 43.7339 69.945C42.4387 69.331 41.036 68.6498 39.8931 67.7893C39.0865 67.1485 38.8624 66.4897 39.2612 65.6471C39.7049 64.706 40.3279 64.6074 41.5424 65.181C42.5955 65.6382 43.8459 66.3104 44.9304 66.902C45.652 67.3008 46.3197 67.6594 46.8037 67.8879C47.4043 68.1703 47.6597 68.0941 47.9331 67.7669C48.1796 67.4084 48.5023 67.3232 49.1835 67.6414C50.0081 68.0313 50.7431 68.8739 50.0977 70.2363C49.6316 71.2267 48.7891 71.5404 47.8524 71.4149L47.8569 71.4194Z" fill="#042F1A"/>
<path d="M46.9096 66.0422C45.2962 64.9711 43.6425 62.5376 45.4755 59.7725C46.8737 57.6661 48.7694 57.4376 50.5441 58.6207C51.5301 59.275 51.6959 60.0324 51.0998 60.9287C50.5128 61.8116 49.8136 62.8289 49.4192 63.4295C49.2714 63.6535 49.3207 63.7745 49.4685 63.8731C49.7957 64.0927 50.4948 64.0793 51.1267 63.1247C51.5346 62.5107 51.7183 61.9461 52.2247 61.1842C52.6729 60.512 53.2465 60.4223 53.8291 60.8077C54.6941 61.3814 54.7792 62.6228 53.4975 64.5454C51.4718 67.5929 48.5498 67.1357 46.9051 66.0422H46.9096ZM48.8008 60.6061C48.384 60.3282 47.8014 60.3954 47.3936 61.0049C46.9589 61.6637 47.1426 62.3225 47.5594 62.6004C47.8148 62.7707 47.9538 62.69 48.5767 61.7489C49.0921 60.9736 49.0831 60.7943 48.8008 60.6061Z" fill="#042F1A"/>
<path d="M51.899 58.4679C49.842 56.4198 49.7479 54.1252 51.1013 52.7673C51.6212 52.2474 52.2172 52.0054 52.9522 52.0816C53.1942 52.1175 53.3197 52.1175 53.4452 51.992C53.5482 51.8889 53.5348 51.7276 53.4586 51.3959C53.3197 50.903 53.4452 50.522 53.8485 50.1142C54.4042 49.554 54.8479 49.5943 55.444 49.8587C56.2955 50.2755 57.2993 51.0957 58.2898 52.0861C59.3922 53.1886 60.1048 54.0221 60.4992 54.6944C60.9339 55.5055 60.8174 56.124 60.3513 56.5946C59.9076 57.0383 59.4505 57.1144 58.9306 56.9262C58.6393 56.8366 58.5004 56.8276 58.3973 56.9262C58.3077 57.0158 58.2942 57.1548 58.3077 57.3968C58.3839 58.1811 58.1822 58.8174 57.6399 59.3642C56.2999 60.6594 53.9785 60.5518 51.8945 58.4768L51.899 58.4679ZM55.9593 54.3134C55.1706 53.5292 54.3101 53.7084 53.8664 54.1521C53.2838 54.7347 53.36 55.5235 54.0591 56.2181C54.7717 56.9262 55.5694 57.0158 56.152 56.4288C56.5957 55.9851 56.7705 55.1201 55.9593 54.3134Z" fill="#042F1A"/>
<path d="M61.0048 54.3043C60.5432 53.6411 60.9556 53.0495 61.3903 52.6372C62.1701 51.9381 62.6227 51.4899 62.3583 51.109C61.825 50.3426 59.6514 52.0591 58.2173 49.9975C57.1417 48.4559 58.2621 46.4929 59.983 45.2919C61.1438 44.4807 61.8519 44.6196 62.3135 45.2829C62.7437 45.9014 62.4658 46.4436 62.0401 46.829C61.3186 47.4206 61.0676 47.815 61.2917 48.1377C61.8026 48.8727 63.9941 47.1248 65.3923 49.1236C66.5844 50.8266 65.1593 53.0495 63.3353 54.3178C62.188 55.12 61.4799 54.9811 61.0093 54.3043H61.0048Z" fill="#042F1A"/>
<path d="M65.0706 47.4073C64.2415 45.6595 64.0802 42.7196 67.0784 41.2989C69.364 40.2189 71.1028 40.9987 72.0171 42.9302C72.5235 44.0013 72.277 44.7318 71.3045 45.1934C70.3499 45.6461 69.2206 46.1615 68.5752 46.4662C68.3332 46.5827 68.3153 46.7082 68.3915 46.8695C68.5618 47.2281 69.1623 47.5776 70.1976 47.0847C70.8608 46.771 71.3135 46.3766 72.1381 45.9867C72.8686 45.6416 73.4064 45.8612 73.7066 46.4931C74.1503 47.4342 73.5812 48.5367 71.4927 49.5271C68.1853 51.0912 65.9177 49.191 65.0751 47.4073H65.0706ZM69.4984 43.7235C69.2833 43.2708 68.75 43.0243 68.0867 43.3425C67.3742 43.6787 67.1904 44.3419 67.4055 44.7946C67.5355 45.0679 67.6968 45.0724 68.7186 44.5884C69.5612 44.1896 69.6463 44.0327 69.4984 43.7235V43.7235Z" fill="#042F1A"/>
<path d="M76.0192 42.4955C75.5531 39.9769 76.4136 37.9199 78.4393 37.5479C79.2504 37.4 79.7838 37.5165 80.3574 37.8661C80.5008 37.9467 80.5636 37.9916 80.7204 37.9602C80.828 37.9423 80.8773 37.8213 80.8324 37.5748C80.7652 37.2028 80.6173 36.6112 80.5232 36.1003C80.3171 34.971 80.6756 34.469 81.6302 34.2898C82.5803 34.115 83.1673 34.5138 83.5707 35.5356C84.1354 37.0191 84.5298 38.8431 84.8524 40.6043C85.1885 42.4194 85.2961 43.6025 85.2558 44.3778C85.1348 45.2921 84.7045 45.7357 84.0547 45.8567C83.4362 45.9688 83.015 45.7581 82.6968 45.3234C82.5265 45.0814 82.4189 44.9918 82.2755 45.0187C82.1545 45.0411 82.0783 45.1442 81.9528 45.3503C81.5674 46.0226 81.0027 46.4393 80.2454 46.5783C78.4034 46.883 76.5615 45.4892 76.0103 42.4955H76.0192ZM81.7557 41.4872C81.5585 40.4116 80.7114 40.0755 80.1109 40.1875C79.2818 40.3399 78.9188 41.0301 79.0936 41.9802C79.2729 42.9482 79.8644 43.477 80.6935 43.3246C81.2941 43.2126 81.9618 42.5986 81.7557 41.4872V41.4872Z" fill="#042F1A"/>
<path d="M86.5277 44.2299C86.344 43.6563 86.2454 42.8182 86.2274 41.3124C86.2095 39.8245 86.3216 38.6055 86.5815 37.7406C86.8414 36.8219 87.2134 36.4588 87.7691 36.4544C88.2531 36.4499 88.4144 36.6605 88.5086 36.8756C88.6027 37.2162 88.6744 37.2879 88.8178 37.2835C88.9612 37.2835 89.0867 37.2431 89.2122 37.1535C89.6379 36.7367 90.0099 36.3737 90.6732 36.3692C91.7129 36.3602 92.0087 37.2162 92.0176 38.1843C92.0266 39.2061 91.6233 39.9276 91.0317 39.9321C90.8524 39.9321 90.6373 39.8469 90.4222 39.8514C89.992 39.8514 89.4407 40.2727 89.4542 41.3483C89.4631 42.1012 89.7769 42.8317 89.7858 43.8714C89.7993 45.1083 89.2301 45.6147 88.3517 45.6237C87.3837 45.6326 86.8235 45.2293 86.5277 44.2254V44.2299Z" fill="#042F1A"/>
<path d="M92.7396 44.9648C92.4886 44.2881 92.5827 42.8764 92.7665 41.1106C92.9412 39.4524 93.1564 37.9242 93.5283 37.3147C93.8331 36.8442 94.3216 36.6425 95.0162 36.7142C95.7109 36.7859 96.1321 37.0862 96.3248 37.6284C96.5937 38.3231 96.4548 39.8244 96.28 41.4826C96.0918 43.2663 95.9125 44.6511 95.5182 45.2964C95.2358 45.7536 94.7473 45.9373 94.0527 45.8611C93.3401 45.7849 92.9368 45.4891 92.7396 44.9648ZM93.7748 34.6392C93.8555 33.8729 94.4426 33.4471 95.3523 33.5412C96.28 33.6398 96.7461 34.1731 96.6654 34.9395C96.5848 35.6879 96.0201 36.1137 95.0924 36.0151C94.1826 35.921 93.6986 35.3832 93.7793 34.6347L93.7748 34.6392Z" fill="#042F1A"/>
<path d="M96.4095 44.5798C96.4813 44.284 96.6157 44.0376 96.8219 43.7956C97.5165 42.9127 100.734 40.9632 100.833 40.5643C100.869 40.4254 100.797 40.3358 100.604 40.2865C100.062 40.1565 99.4167 40.0176 98.8386 39.8787C98.0184 39.6815 97.8302 39.2467 97.9871 38.6014C98.238 37.5751 98.8655 37.118 101.944 37.8664C105.167 38.6462 105.453 39.2154 105.176 40.3627C105.09 40.7122 104.947 41.008 104.692 41.2948C103.692 42.4556 101.075 43.7373 100.963 44.2079C100.918 44.4006 101.061 44.4902 101.25 44.535C101.72 44.6471 102.276 44.786 102.8 44.9115C103.585 45.0997 103.768 45.5523 103.616 46.1977C103.374 47.1926 102.72 47.6228 99.5825 46.861C96.535 46.1215 96.2124 45.4 96.4095 44.5798Z" fill="#042F1A"/>
<path d="M103.826 46.385C103.947 46.1072 104.118 45.8876 104.364 45.6814C105.198 44.9285 108.702 43.5527 108.864 43.1717C108.922 43.0418 108.864 42.9387 108.684 42.8625C108.173 42.6429 107.559 42.3964 107.017 42.1634C106.242 41.8273 106.13 41.3701 106.394 40.7606C106.815 39.7881 107.51 39.4475 110.423 40.7024C113.466 42.02 113.654 42.625 113.184 43.7095C113.04 44.0367 112.848 44.3056 112.547 44.5476C111.364 45.5201 108.568 46.3447 108.38 46.7884C108.303 46.9676 108.429 47.0842 108.608 47.1603C109.052 47.3531 109.581 47.5816 110.074 47.7923C110.813 48.1104 110.921 48.59 110.656 49.195C110.253 50.1316 109.531 50.4454 106.569 49.1681C103.692 47.9222 103.495 47.1559 103.826 46.385V46.385Z" fill="#042F1A"/>
<path d="M111.485 49.8051C111.741 48.7251 112.561 47.2058 113.377 45.8568C114.121 44.6289 114.945 43.3068 115.918 42.2626C116.639 41.5276 117.316 41.3708 118.114 41.8548C119.001 42.3926 119.041 43.0245 118.342 44.1718C117.778 45.1712 116.98 46.3453 116.281 47.3627C115.806 48.0394 115.384 48.6668 115.107 49.1239C114.762 49.6886 114.815 49.953 115.107 50.2578C115.438 50.5446 115.492 50.8673 115.102 51.5126C114.627 52.2924 113.713 52.9333 112.427 52.1535C111.494 51.5843 111.266 50.7149 111.485 49.8006V49.8051Z" fill="#042F1A"/>
<path d="M116.922 49.4104C118.154 47.918 120.744 46.5198 123.303 48.6306C125.253 50.2395 125.284 52.1442 123.931 53.7934C123.178 54.7076 122.407 54.7928 121.578 54.1116C120.762 53.4393 119.817 52.6371 119.266 52.18C119.059 52.0097 118.934 52.0456 118.822 52.1845C118.571 52.4892 118.513 53.1839 119.396 53.9144C119.965 54.3805 120.507 54.6225 121.215 55.2051C121.838 55.716 121.869 56.3031 121.421 56.8409C120.758 57.6431 119.521 57.5982 117.733 56.1283C114.909 53.8023 115.667 50.9386 116.922 49.4194V49.4104ZM122.138 51.8484C122.456 51.463 122.452 50.8759 121.887 50.4098C121.278 49.9078 120.601 50.0244 120.283 50.4098C120.09 50.6428 120.153 50.7907 121.027 51.5078C121.748 52.0993 121.928 52.1083 122.143 51.8439L122.138 51.8484Z" fill="#042F1A"/>
<path d="M123.505 59.7537C124.096 58.9873 125.136 58.1851 126.324 57.4143C127.619 56.5762 128.573 56.0429 129.326 55.8143C130.191 55.5992 130.733 55.8457 131.101 56.4149C131.433 56.9258 131.424 57.3784 131.159 57.8266C131.002 58.0775 130.962 58.212 131.047 58.3464C131.105 58.4361 131.24 58.4764 131.486 58.5302C132.248 58.6153 132.817 58.9739 133.342 59.785C133.808 60.5066 133.929 61.1564 133.678 61.7883C133.57 62.0482 133.521 62.2096 133.611 62.344C133.669 62.4337 133.794 62.4605 134.054 62.5054C134.856 62.586 135.435 63.0207 135.99 63.8812C137.07 65.5528 136.071 67.2021 134.189 68.421C132.849 69.286 131.58 70.0658 130.505 70.4198C129.792 70.6036 129.272 70.4915 128.766 69.7117C128.192 68.8244 128.528 68.0939 129.151 67.6681C129.595 67.3589 130.205 66.9869 130.819 66.6105C131.267 66.3416 131.71 66.0772 132.118 65.8128C132.719 65.4229 132.938 64.9389 132.66 64.5041C132.427 64.1411 131.746 63.8812 130.949 64.3966C130.464 64.7058 130.07 64.9882 129.671 65.266C129.228 65.5752 128.802 65.871 128.304 66.1937C127.386 66.7897 126.646 66.4357 126.167 65.6962C125.526 64.7013 125.871 63.9843 126.494 63.563C126.951 63.2448 127.56 62.8728 128.188 62.4874C128.618 62.232 129.066 61.9631 129.456 61.7076C130.057 61.3177 130.267 60.8203 129.985 60.3811C129.752 60.0181 129.093 59.7626 128.295 60.278C127.345 60.892 126.57 61.5015 125.651 62.0975C124.733 62.6936 123.993 62.3395 123.545 61.6449C123.039 60.8606 123.128 60.2735 123.496 59.7537H123.505Z" fill="#042F1A"/>
<path d="M133.857 69.9992C135.69 69.3808 138.63 69.5645 139.688 72.7106C140.494 75.1082 139.513 76.744 137.492 77.4207C136.371 77.7972 135.672 77.4655 135.327 76.4482C134.991 75.4444 134.615 74.2657 134.382 73.589C134.296 73.3335 134.171 73.3022 134.001 73.3559C133.629 73.4814 133.207 74.0371 133.575 75.1262C133.808 75.8208 134.144 76.3138 134.435 77.1787C134.691 77.9451 134.413 78.456 133.75 78.6756C132.764 79.0072 131.737 78.3126 130.998 76.1211C129.833 72.6568 131.984 70.6267 133.853 69.9947L133.857 69.9992ZM136.994 74.8259C137.469 74.6646 137.774 74.1671 137.541 73.468C137.29 72.7196 136.654 72.4596 136.179 72.621C135.892 72.7196 135.869 72.8764 136.228 73.9475C136.524 74.8304 136.672 74.9335 136.994 74.8259V74.8259Z" fill="#042F1A"/>
<path d="M42.4636 89.1853C42.4188 90.7673 41.0564 92.0131 39.4117 91.9683C37.7714 91.919 36.4807 90.6015 36.5255 89.0195C36.5704 87.4375 38.2644 86.5904 39.9002 86.6397C41.5404 86.689 42.504 87.6078 42.4592 89.1898L42.4636 89.1853Z" fill="#042F1A"/>
<path d="M141.579 86.5179C141.534 88.0999 140.172 89.3458 138.527 89.3009C136.887 89.2516 135.596 87.9341 135.641 86.3476C135.686 84.7656 137.38 83.9186 139.015 83.9679C140.656 84.0172 141.619 84.9359 141.574 86.5179H141.579Z" fill="#042F1A"/>
<path fill-rule="evenodd" clip-rule="evenodd" d="M89.5521 105.3C90.3902 107.756 92.4562 110.051 95.1586 108.706C97.6772 107.456 98.3136 103.754 98.7259 101.289C103.857 105.022 104.79 111.086 101.993 118.552C132.79 94.7597 93.5945 83.0941 91.7302 59.2969C83.3317 64.4283 79.1324 72.3607 83.7978 88.6916C77.2278 91.6136 75.2379 80.5396 75.2379 80.5396C62.6402 92.2052 64.1998 110.624 81.4629 119.018C76.3314 109.222 80.9968 100.353 92.6623 91.9542C92.6623 91.9542 88.2076 101.339 89.5521 105.296V105.3Z" stroke="#042F1A" stroke-width="4.16713" stroke-linecap="round" stroke-linejoin="round"/>
</svg>
