<svg width="161" height="161" viewBox="0 0 161 161" fill="none" xmlns="http://www.w3.org/2000/svg">
<path d="M80.6162 0C89.2683 0 96.6364 7.26218 104.456 9.70511C112.552 12.2369 122.928 10.6157 129.672 15.335C136.484 20.0987 138.058 30.1036 143.008 36.644C147.924 43.1178 157.386 47.615 160.023 55.388C162.568 62.8944 157.768 71.8445 157.768 80.1504C157.768 88.4564 162.568 97.4175 160.023 104.924C157.386 112.697 147.924 117.194 143.008 123.668C138.046 130.208 136.473 140.213 129.672 144.977C122.928 149.696 112.541 148.075 104.456 150.607C96.6364 153.05 89.2798 160.312 80.6162 160.312C71.9526 160.312 64.596 153.05 56.7768 150.607C48.6799 148.075 38.3044 149.696 31.5609 144.977C24.7479 140.213 23.1748 130.208 18.2242 123.668C13.3083 117.194 3.84651 112.697 1.20925 104.924C-1.33547 97.4175 3.4648 88.4675 3.4648 80.1615C3.4648 71.8556 -1.34704 62.8833 1.19768 55.3769C3.74241 47.8704 13.2967 43.1067 18.2126 36.6329C23.1286 30.1591 24.7479 20.0876 31.5493 15.3239C38.3506 10.5601 48.6799 12.2258 56.7652 9.69401C64.596 7.26218 71.9526 0 80.6162 0Z" fill="#EEFC4D"/>
<path d="M27.5284 94.0132C31.4651 92.4444 34.8087 94.6995 36.3628 98.597C37.054 100.328 36.7451 101.146 35.8725 101.494C35.0146 101.838 34.3037 101.421 33.8527 100.504C32.328 97.3126 30.6415 96.8419 28.857 97.5577C27.2539 98.195 26.5479 99.4893 27.0382 100.73C27.3667 101.548 27.9599 101.926 28.906 101.548C29.2541 101.411 29.308 101.284 29.2247 100.916C28.8227 99.6413 29.1021 99.2344 29.7051 98.9941C30.5778 98.6461 31.3671 98.8814 32.1368 100.813C33.0928 103.215 32.2888 103.897 30.4503 104.632C27.499 105.809 24.9448 104.907 23.7241 101.842C22.5622 98.9304 23.577 95.5918 27.5284 94.0181V94.0132Z" fill="#042F1A"/>
<path d="M31.1611 105.926C33.8084 104.132 36.5293 104.897 38.0687 107.171C39.6179 109.461 39.3679 112.309 36.7205 114.099C34.0732 115.893 31.1611 115.162 29.6217 112.888C28.0921 110.633 28.5137 107.716 31.1611 105.926ZM34.8429 111.226C35.7057 110.642 35.9018 109.75 35.3969 109C34.9017 108.27 34.0094 108.142 33.1466 108.721C32.2396 109.338 31.9651 110.231 32.4701 110.976C32.975 111.721 33.9457 111.824 34.838 111.221L34.8429 111.226Z" fill="#042F1A"/>
<path d="M37.6225 115.069C39.858 112.868 42.7946 113.172 44.6527 115.06C45.9567 116.388 46.1136 117.496 45.29 118.31C44.9566 118.638 44.6183 118.805 44.2899 118.8C43.7653 118.8 43.3633 118.388 42.7162 117.844C41.971 117.202 41.0738 117.07 40.2747 117.849C39.505 118.604 39.6227 119.536 40.2551 120.237C40.8189 120.894 41.216 121.242 41.2111 121.771C41.2111 122.134 40.9954 122.507 40.6767 122.82C39.9757 123.507 38.6618 123.512 37.2303 122.056C35.4016 120.197 35.3281 117.325 37.6225 115.069V115.069Z" fill="#042F1A"/>
<path d="M42.1281 125.066C42.4222 124.07 43.1331 122.825 44.545 120.82C45.4128 119.585 46.5796 117.962 47.8493 116.741C48.7171 115.913 49.4819 115.78 50.3496 116.393C51.2468 117.026 51.3056 117.761 50.6143 118.741C50.3006 119.192 49.9182 119.663 49.624 120.08C49.3642 120.448 49.3691 120.644 49.4966 120.737C49.624 120.825 49.7172 120.796 49.9476 120.742C50.781 120.511 51.4772 120.644 52.2175 121.163C53.899 122.35 53.5411 124.423 52.1341 126.429C51.1291 127.855 50.1437 129.149 49.1828 129.939C48.5504 130.429 47.9768 130.527 47.1434 129.939C46.1972 129.272 46.2413 128.395 46.7168 127.718C47.0355 127.198 47.5012 126.571 47.9817 125.924C48.3151 125.487 48.6582 125.031 48.9524 124.615C49.4034 123.972 49.4132 123.379 48.9524 123.056C48.5847 122.796 47.7954 122.791 47.1973 123.644C46.4864 124.654 45.9619 125.605 45.2706 126.581C44.5842 127.561 43.6675 127.492 42.9468 126.983C42.0987 126.384 41.9516 125.777 42.1379 125.071L42.1281 125.066Z" fill="#042F1A"/>
<path d="M53.1781 127.792C53.786 126.409 54.3106 125.355 54.8743 124.659C55.4872 123.899 56.1833 123.669 57.154 124.095C58.0855 124.502 58.414 125.183 57.9237 126.296C57.5119 127.233 57.1001 128.12 56.551 129.38C56.1196 130.365 56.301 130.875 56.8942 131.135C57.4531 131.38 57.9482 131.169 58.3993 130.189C58.5954 129.738 58.7522 129.336 58.9189 128.958C59.1984 128.267 59.4337 127.684 59.718 127.081C60.1887 125.958 60.9044 125.737 61.8947 126.174C62.738 126.546 62.9733 127.184 62.8262 128.145C62.7135 129.037 62.2771 130.13 61.6692 131.513C60.321 134.582 58.3649 135.675 55.4381 134.39C52.3839 133.052 51.825 130.856 53.1732 127.787L53.1781 127.792Z" fill="#042F1A"/>
<path d="M60.8604 137.753C61.2133 136.449 62.086 136.375 62.5076 134.807L63.4832 131.189C63.8215 129.938 64.1499 128.948 64.5176 128.257C64.9294 127.556 65.5668 127.301 66.459 127.541C67.366 127.786 67.7337 128.453 67.6699 129.532C67.5572 130.84 67.0865 132.586 66.3953 135.16C66.3659 135.272 66.3365 135.365 66.312 135.464C65.4687 138.586 63.8411 139.935 61.9291 139.42C60.9633 139.16 60.6643 138.469 60.8555 137.748L60.8604 137.753ZM65.4638 125.08C65.6893 124.247 66.3708 123.903 67.3366 124.163C68.322 124.428 68.7583 125.075 68.5328 125.909C68.3171 126.703 67.6111 127.061 66.6257 126.796C65.6599 126.536 65.2481 125.874 65.4638 125.08V125.08Z" fill="#042F1A"/>
<path d="M68.3518 133.331C68.6999 130.173 70.6021 128.526 72.6857 128.761C73.4848 128.85 74.0976 129.193 74.5339 129.874C74.6663 130.105 74.7545 130.213 74.9457 130.237C75.1026 130.257 75.235 130.129 75.4654 129.84C75.7939 129.384 76.2057 129.232 76.8283 129.301C77.6862 129.394 77.9559 129.801 78.1373 130.492C78.3628 131.502 78.3432 132.924 78.1716 134.443C77.9853 136.14 77.7549 137.316 77.4509 138.115C77.0538 139.037 76.4459 139.366 75.7203 139.287C75.0389 139.214 74.6614 138.875 74.4702 138.302C74.3476 137.993 74.2643 137.865 74.1074 137.846C73.9701 137.831 73.8427 137.914 73.6466 138.091C73.0288 138.694 72.3474 138.954 71.5091 138.861C69.4843 138.596 67.9989 136.537 68.3518 133.34V133.331ZM74.6761 133.973C74.8084 132.762 74.0682 132.149 73.3867 132.071C72.4896 131.973 71.8718 132.576 71.7542 133.644C71.6316 134.738 72.1023 135.478 72.9994 135.581C73.6809 135.654 74.5388 135.218 74.6761 133.973V133.973Z" fill="#042F1A"/>
<path d="M80.828 138.361C80.4063 137.415 80.1367 136.003 79.9945 134.478C79.8229 132.606 79.8475 131.419 80.0239 130.556C80.2838 129.762 80.7446 129.385 81.4261 129.326C82.0879 129.262 82.5438 129.478 82.8282 129.983C83.0096 130.262 83.1223 130.37 83.2743 130.355C83.4116 130.341 83.5194 130.233 83.6763 130.022C84.1813 129.287 84.7941 128.934 85.853 128.836C88.0003 128.635 89.0936 130.444 89.324 132.905C89.4858 134.64 89.5789 136.268 89.3534 137.488C89.1916 138.273 88.819 138.719 87.8042 138.812C86.6521 138.92 86.1129 138.219 86.0393 137.4C85.9658 136.817 85.9168 136.052 85.8628 135.273C85.8089 134.709 85.7746 134.12 85.7256 133.591C85.652 132.812 85.2745 132.351 84.7107 132.405C84.2597 132.444 83.6616 132.973 83.7548 134.008C83.8675 135.219 84.0832 136.302 84.196 137.474C84.3087 138.665 83.5685 139.204 82.6909 139.288C81.6565 139.386 81.1515 139.018 80.8329 138.356L80.828 138.361Z" fill="#042F1A"/>
<path d="M93.0652 138.689C92.7955 137.807 93.3887 137.194 94.2124 136.944C94.8889 136.738 95.8449 136.709 96.6881 136.454C97.6049 136.169 97.9824 135.586 97.7618 134.875C97.6735 134.596 97.4529 134.537 97.2274 134.61C96.6832 134.777 96.2616 135.277 95.4184 135.537C93.1877 136.223 91.413 135.125 90.6777 132.723C89.8884 130.154 90.9816 128.036 93.0064 127.414C93.8496 127.154 94.4428 127.218 95.1635 127.693C95.3792 127.855 95.536 127.909 95.688 127.86C95.8547 127.806 95.9233 127.624 96.0165 127.267C96.1096 126.766 96.3793 126.438 97.0705 126.227C97.801 126.002 98.2618 126.291 98.7031 126.938C99.4973 128.252 100.071 129.86 100.796 132.223C101.787 135.449 101.262 138.15 97.4774 139.312C94.683 140.17 93.4035 139.802 93.0652 138.699V138.689ZM96.693 130.929C96.4038 129.992 95.7174 129.688 94.9477 129.924C94.0849 130.188 93.7564 130.924 94.0261 131.806C94.2712 132.61 94.9575 133.037 95.7812 132.787C96.5509 132.551 96.9823 131.885 96.6881 130.929H96.693Z" fill="#042F1A"/>
<path d="M107.831 131.483C106.968 130.87 106.047 129.767 105.155 128.502C104.184 127.124 103.556 126.1 103.277 125.291C103.002 124.354 103.247 123.751 103.855 123.325C104.4 122.942 104.895 122.928 105.4 123.197C105.679 123.359 105.831 123.398 105.973 123.295C106.071 123.227 106.111 123.08 106.155 122.805C106.213 121.972 106.581 121.33 107.444 120.722C108.214 120.177 108.915 120.021 109.621 120.271C109.91 120.378 110.086 120.423 110.234 120.32C110.332 120.251 110.351 120.114 110.39 119.824C110.444 118.947 110.895 118.295 111.807 117.648C113.587 116.393 115.435 117.417 116.847 119.422C117.852 120.849 118.759 122.202 119.19 123.359C119.421 124.129 119.323 124.707 118.489 125.291C117.543 125.957 116.729 125.619 116.239 124.957C115.886 124.487 115.45 123.835 115.014 123.183C114.7 122.707 114.391 122.232 114.087 121.795C113.636 121.153 113.097 120.932 112.631 121.261C112.248 121.531 111.989 122.29 112.587 123.139C112.95 123.653 113.268 124.075 113.592 124.497C113.945 124.967 114.288 125.418 114.665 125.948C115.357 126.928 114.999 127.752 114.214 128.306C113.155 129.051 112.356 128.703 111.866 128.041C111.498 127.556 111.062 126.904 110.616 126.232C110.317 125.771 110.003 125.296 109.709 124.879C109.258 124.237 108.704 124.031 108.238 124.354C107.851 124.624 107.601 125.354 108.199 126.208C108.91 127.217 109.611 128.041 110.302 129.022C110.993 129.997 110.636 130.826 109.9 131.345C109.067 131.934 108.42 131.86 107.836 131.483H107.831Z" fill="#042F1A"/>
<path d="M118.288 118.57C115.862 116.521 115.558 114.025 116.911 112.422C117.43 111.809 118.058 111.491 118.867 111.505C119.132 111.525 119.269 111.515 119.396 111.363C119.499 111.246 119.47 111.064 119.357 110.711C119.161 110.187 119.264 109.76 119.666 109.28C120.225 108.623 120.71 108.623 121.382 108.858C122.348 109.236 123.514 110.044 124.681 111.03C125.985 112.133 126.833 112.976 127.324 113.672C127.868 114.516 127.799 115.207 127.333 115.761C126.892 116.285 126.402 116.408 125.814 116.251C125.49 116.182 125.333 116.178 125.235 116.3C125.147 116.403 125.147 116.56 125.181 116.82C125.338 117.668 125.171 118.379 124.627 119.021C123.279 120.551 120.745 120.639 118.283 118.565L118.288 118.57ZM122.343 113.677C121.416 112.893 120.49 113.167 120.048 113.687C119.465 114.378 119.622 115.226 120.445 115.923C121.284 116.633 122.161 116.653 122.745 115.967C123.186 115.442 123.304 114.486 122.343 113.677V113.677Z" fill="#042F1A"/>
<path d="M130.295 112.794C129.54 112.377 129.456 111.593 129.814 110.941C130.152 110.323 130.486 110.122 130.824 109.505C131.162 108.887 131.113 108.568 130.79 108.387C130.221 108.073 129.378 109.088 127.191 109.274C126.02 109.367 124.318 109.083 123.029 108.377C121.911 107.764 121.343 107.093 121.975 105.94C122.607 104.788 124.093 104.935 127.932 105.852C128.236 105.95 128.324 105.911 128.383 105.808C128.441 105.705 128.437 105.592 128.206 105.396C125.549 103.019 124.265 101.778 124.98 100.469C125.603 99.3368 126.466 99.5182 127.633 100.16C128.956 100.886 130.971 102.842 132.427 104.832C134.089 107.063 134.643 109.112 133.462 111.265C132.613 112.814 131.403 113.422 130.295 112.794V112.794Z" fill="#042F1A"/>
<path d="M130.52 100.47C127.471 99.5087 126.382 96.9055 127.206 94.2875C128.035 91.65 130.422 90.0812 133.471 91.0372C136.521 91.998 137.756 94.7287 136.933 97.3467C136.114 99.945 133.574 101.426 130.525 100.47H130.52ZM132.383 94.2924C131.393 93.9787 130.569 94.3807 130.295 95.2386C130.03 96.0818 130.481 96.8613 131.476 97.1702C132.525 97.4987 133.393 97.1555 133.663 96.2975C133.932 95.4396 133.413 94.616 132.383 94.2924Z" fill="#042F1A"/>
<path d="M25.8358 72.7417C21.6981 71.8397 20.1882 68.0942 21.0853 63.9957C21.4824 62.1768 22.1933 61.667 23.1149 61.8729C24.017 62.069 24.3749 62.8093 24.2327 63.8241C23.7082 67.3196 24.8455 68.653 26.7183 69.0649C28.4048 69.4325 29.7186 68.756 30.003 67.4519C30.1893 66.5891 29.9098 65.9469 28.9146 65.7312C28.5518 65.6527 28.4342 65.7312 28.2969 66.0792C27.9145 67.3588 27.4537 67.5402 26.8212 67.4029C25.8996 67.2019 25.3799 66.5646 25.8211 64.5349C26.3751 62.0052 27.4194 61.8925 29.3558 62.319C32.4591 62.9956 34.0721 65.1772 33.3661 68.3932C32.6944 71.4573 29.9883 73.6585 25.8309 72.7466L25.8358 72.7417Z" fill="#042F1A"/>
<path d="M23.5802 58.3034C22.7958 57.9896 22.5212 57.2493 22.8938 56.3227C23.2713 55.3766 23.9724 55.0432 24.7568 55.352C25.5216 55.656 25.8059 56.3816 25.4284 57.3278C25.0607 58.2592 24.3499 58.6073 23.5851 58.3034H23.5802ZM34.15 62.446C33.3656 62.5146 31.9046 61.9949 30.1005 61.2792C28.4042 60.6075 26.8599 59.9261 26.3256 59.3574C25.9187 58.9015 25.85 58.323 26.1344 57.6121C26.4187 56.9012 26.855 56.5483 27.4826 56.5041C28.2964 56.4257 29.8309 57.0189 31.5271 57.6905C33.3509 58.4161 34.7579 59.0191 35.3168 59.6221C35.7139 60.0536 35.7629 60.6222 35.4786 61.3331C35.1893 62.0636 34.7579 62.3969 34.15 62.4509V62.446Z" fill="#042F1A"/>
<path d="M34.2144 56.5681C32.5279 56.4308 30.5277 55.8915 29.356 55.215C28.1843 54.5384 27.6009 53.906 28.3363 52.6314C28.856 51.7293 29.6257 51.6558 31.0474 52.1362C31.8906 52.396 32.6162 52.6363 33.5771 53.0089C34.5086 53.3177 34.9204 53.3079 35.0086 53.1559C35.1067 52.9843 34.9008 52.6412 34.1654 51.9891C33.3516 51.3175 32.8025 50.8174 32.1554 50.2193C31.018 49.2486 30.6993 48.5427 31.2386 47.6063C31.9642 46.3513 32.8123 46.5228 33.984 47.1994C35.1557 47.8759 36.6215 49.332 37.5873 50.7243C38.813 52.45 39.2444 53.9697 38.5384 55.1905C37.8423 56.3965 36.3078 56.7789 34.2144 56.5632V56.5681Z" fill="#042F1A"/>
<path d="M36.9309 47.9593C35.3277 46.5768 33.8619 43.7088 36.2298 40.9634C38.0339 38.87 40.1224 38.8798 41.8873 40.4045C42.8678 41.2477 42.9462 42.091 42.1765 42.9832C41.4215 43.8608 40.5244 44.8707 40.0096 45.4688C39.8184 45.6943 39.8576 45.8267 40.0047 45.9541C40.3332 46.2336 41.0882 46.3169 41.9069 45.3658C42.4315 44.7579 42.706 44.1647 43.358 43.4097C43.9365 42.743 44.5739 42.7234 45.1524 43.2234C46.0152 43.9637 45.9319 45.3217 44.2846 47.2386C41.6716 50.2683 38.5634 49.3761 36.9259 47.9642L36.9309 47.9593ZM39.7253 42.3165C39.3086 41.9586 38.6712 41.9488 38.1467 42.5567C37.5829 43.2087 37.6956 43.9539 38.1124 44.3118C38.3624 44.5275 38.5242 44.4638 39.3331 43.5274C39.9998 42.7528 40.0096 42.5616 39.7302 42.3165H39.7253Z" fill="#042F1A"/>
<path d="M48.3866 41.018C47.563 40.3513 46.7099 39.1943 45.8961 37.8804C45.0088 36.444 44.4499 35.385 44.2145 34.5614C43.9988 33.6103 44.2783 33.022 44.9156 32.6298C45.4843 32.2818 45.9794 32.2965 46.4648 32.5955C46.7344 32.772 46.8815 32.821 47.0335 32.7279C47.1364 32.6641 47.1806 32.522 47.2443 32.2523C47.3571 31.4238 47.7591 30.8061 48.6611 30.2521C49.4602 29.757 50.1711 29.6393 50.8574 29.9334C51.1418 30.056 51.3134 30.1148 51.4654 30.0217C51.5683 29.958 51.5977 29.8256 51.6516 29.5363C51.7595 28.6637 52.2498 28.0411 53.2008 27.4528C55.054 26.3105 56.8336 27.443 58.123 29.5314C59.0397 31.0169 59.8633 32.4239 60.2212 33.6054C60.4075 34.3898 60.2703 34.9585 59.4025 35.4929C58.4171 36.1008 57.6278 35.7135 57.1768 35.0223C56.8483 34.532 56.4561 33.8555 56.059 33.1789C55.7747 32.6838 55.4952 32.1886 55.2158 31.7425C54.804 31.0757 54.2794 30.8208 53.794 31.1199C53.392 31.365 53.0881 32.1053 53.6372 32.9926C53.9656 33.527 54.2598 33.9682 54.5539 34.4045C54.8824 34.8948 55.1962 35.3703 55.5344 35.9194C56.162 36.9391 55.7599 37.7382 54.9412 38.2432C53.8382 38.9246 53.0636 38.5275 52.6125 37.8363C52.2743 37.3313 51.8821 36.6499 51.4752 35.9586C51.2055 35.4831 50.9212 34.9879 50.6515 34.5516C50.2397 33.8849 49.7005 33.6397 49.2151 33.9388C48.8131 34.1839 48.5189 34.8997 49.0631 35.7821C49.7152 36.8313 50.3623 37.699 50.9898 38.7187C51.6173 39.7385 51.2153 40.5376 50.4456 41.0131C49.5779 41.5475 48.9357 41.4396 48.3768 41.0229L48.3866 41.018Z" fill="#042F1A"/>
<path d="M59.8296 29.9274C59.1972 27.9076 59.4668 24.6965 62.9329 23.6179C65.5705 22.7943 67.3354 23.9072 68.0315 26.1329C68.4188 27.3683 68.0364 28.1233 66.9138 28.4763C65.8107 28.8195 64.5115 29.2068 63.7614 29.4421C63.482 29.5303 63.4428 29.6676 63.5016 29.8539C63.6291 30.2657 64.2272 30.7364 65.4283 30.3638C66.198 30.1235 66.7422 29.7706 67.6982 29.4715C68.5414 29.2068 69.0905 29.5303 69.3209 30.2608C69.6592 31.3443 68.8748 32.4522 66.4627 33.2072C62.6437 34.3985 60.4768 31.9963 59.8296 29.9372V29.9274ZM65.1832 26.6133C65.0214 26.0888 64.4821 25.7456 63.7124 25.9858C62.8888 26.2408 62.5897 26.932 62.7564 27.4566C62.8545 27.7752 63.031 27.8047 64.2076 27.437C65.1832 27.133 65.2959 26.9712 65.1832 26.6183V26.6133Z" fill="#042F1A"/>
<path d="M72.4432 26.3933C72.3011 23.2214 73.9238 21.3045 76.0221 21.2113C76.8261 21.177 77.483 21.4221 78.0223 22.0252C78.189 22.236 78.2919 22.3291 78.488 22.3193C78.6449 22.3144 78.7577 22.1722 78.9391 21.8487C79.1891 21.3486 79.5764 21.1329 80.2039 21.1084C81.0668 21.0692 81.3952 21.427 81.6796 22.084C82.0571 23.0498 82.2532 24.4519 82.3218 25.9815C82.3953 27.6875 82.3512 28.8838 82.1747 29.7172C81.9247 30.6879 81.3707 31.1046 80.6451 31.1389C79.9588 31.1683 79.5372 30.8938 79.2577 30.3545C79.0861 30.0702 78.9832 29.9525 78.8263 29.9623C78.689 29.9672 78.5763 30.0702 78.4096 30.2761C77.8899 30.9673 77.2575 31.3301 76.4143 31.3644C74.3748 31.4135 72.5854 29.6093 72.4432 26.3982V26.3933ZM78.7871 26.055C78.7332 24.8392 77.9046 24.3489 77.2232 24.3784C76.3211 24.4176 75.8015 25.1088 75.8505 26.1874C75.8995 27.2855 76.478 27.9474 77.3801 27.9082C78.0664 27.8787 78.8459 27.315 78.792 26.0599L78.7871 26.055Z" fill="#042F1A"/>
<path d="M87.4021 28.065C87.6325 26.9129 87.8237 26.2511 87.9413 25.653C88.0002 25.3441 87.9413 25.1333 87.7305 25.0107C87.3432 24.8343 86.8677 24.4175 87.1079 23.2066C87.3187 22.1477 87.956 21.7555 88.6081 21.8878C88.8189 21.932 88.9316 21.8731 89.0689 21.4809C89.1228 21.3094 89.1768 21.1427 89.2258 20.9907C89.5003 20.2063 90.1229 19.9906 90.9123 20.1475C91.8928 20.3436 92.2212 20.8093 92.2016 22.2016C92.2016 22.5007 92.2604 22.6134 92.5693 22.6722L93.339 22.8242C94.2411 23.0056 94.7509 23.4665 94.5107 24.6774C94.2558 25.9667 93.5106 26.1972 92.7017 26.0354L91.8731 25.8736C91.6623 25.8295 91.5349 25.8687 91.4907 26.0991C91.3731 26.5943 91.275 27.0747 91.2064 27.4228C91.1819 27.5551 91.177 27.6777 91.1623 27.7512C90.9809 28.6533 91.2995 28.9769 91.7996 29.0798C92.1281 29.1436 92.2555 29.1092 92.5056 29.1583C93.236 29.3053 93.589 29.8348 93.3978 30.7957C93.1674 31.9674 92.2604 32.8106 90.0445 32.3694C87.5834 31.8792 86.9804 30.1829 87.4021 28.065V28.065Z" fill="#042F1A"/>
<path d="M94.0003 31.6393C94.0248 30.9823 94.2454 30.0803 94.7994 28.5311C95.3485 26.9966 95.9221 25.7857 96.5153 25.0013C97.1281 24.1581 97.6478 23.9276 98.2214 24.1286C98.7214 24.3051 98.8097 24.5895 98.8195 24.8444C98.7852 25.2268 98.8342 25.3298 98.9813 25.3788C99.1283 25.4327 99.2705 25.4425 99.4323 25.3935C100.026 25.1288 100.545 24.8934 101.232 25.1386C102.305 25.521 102.281 26.5113 101.928 27.5114C101.55 28.5654 100.864 29.1537 100.256 28.9331C100.07 28.8694 99.8833 28.6978 99.6627 28.6144C99.2166 28.4576 98.4959 28.6782 98.0988 29.7861C97.8194 30.5607 97.8684 31.4334 97.486 32.5021C97.0301 33.7768 96.2555 34.0856 95.3485 33.7621C94.3533 33.4042 93.9317 32.7767 94.0052 31.6393H94.0003Z" fill="#042F1A"/>
<path d="M98.5694 35.3105C98.991 34.5555 99.7754 34.482 100.427 34.8447C101.045 35.1879 101.236 35.5213 101.854 35.8694C102.472 36.2125 102.79 36.1684 102.972 35.8449C103.291 35.2811 102.285 34.4231 102.114 32.2415C102.031 31.0698 102.33 29.3736 103.05 28.0891C103.673 26.9762 104.349 26.4124 105.497 27.0547C106.644 27.6969 106.482 29.1824 105.531 33.0112C105.428 33.3152 105.467 33.4034 105.57 33.4622C105.673 33.5211 105.786 33.5162 105.982 33.2907C108.379 30.658 109.634 29.3834 110.938 30.1089C112.066 30.7414 111.88 31.6042 111.223 32.7661C110.482 34.0849 108.512 36.0802 106.511 37.5215C104.266 39.159 102.212 39.6933 100.074 38.4971C98.5351 37.6343 97.9321 36.4185 98.5743 35.3154L98.5694 35.3105Z" fill="#042F1A"/>
<path d="M113.287 37.7667C114.424 36.6882 115.39 35.8793 116.223 35.4184C117.15 34.9429 117.802 34.9478 118.479 35.6587C119.111 36.3303 119.16 37.0657 118.194 37.9824C117.297 38.8306 116.542 39.4924 115.748 40.2474C114.993 40.9632 114.91 41.4191 115.316 41.875C115.64 42.1888 116.179 42.2427 116.92 41.6005C116.978 41.5466 117.047 41.4779 117.106 41.424C117.831 40.7082 118.488 40.0611 119.327 39.2914C120.41 38.2374 121.234 38.5658 121.842 39.2081C122.45 39.8503 122.758 40.718 121.66 41.7574C120.763 42.6055 120.038 43.2379 119.214 44.0223C118.503 44.6989 118.557 45.2676 118.881 45.6353C119.273 46.0226 119.734 45.9637 120.498 45.2627C120.753 45.0175 121.008 44.7773 121.253 44.5175C121.768 44.0321 122.278 43.5174 122.906 42.9536C123.862 42.0221 124.582 42.0957 125.293 42.8506C125.916 43.5076 125.881 44.1547 125.347 45.0421C124.867 45.8461 123.969 46.753 122.842 47.8463C120.494 50.0426 118.557 50.4495 116.679 48.4738C115.733 47.4786 115.65 46.5324 115.704 45.6157C115.723 45.3509 115.714 45.2284 115.62 45.1254C115.513 45.0126 115.39 44.993 115.125 45.0028C114.209 45.0323 113.297 44.8999 112.35 43.8998C110.487 41.9339 110.958 39.9778 113.292 37.7667H113.287Z" fill="#042F1A"/>
<path d="M120.155 51.7345C120.562 51.0579 121.842 50.1804 123.479 49.1411C125.019 48.1655 126.475 47.3124 127.249 47.2144C127.862 47.1506 128.367 47.435 128.774 48.0821C129.181 48.7292 129.215 49.2881 128.882 49.8274C128.47 50.5285 127.088 51.4305 125.548 52.4061C123.891 53.4553 122.577 54.2397 121.759 54.3426C121.175 54.4113 120.685 54.1171 120.278 53.47C119.856 52.8081 119.837 52.264 120.155 51.7345V51.7345ZM129.715 45.6063C130.426 45.1553 131.191 45.371 131.725 46.2143C132.27 47.0771 132.127 47.8419 131.416 48.2929C130.72 48.7341 129.97 48.538 129.421 47.6752C128.887 46.832 129.019 46.0476 129.715 45.6113V45.6063Z" fill="#042F1A"/>
<path d="M125.372 54.8813C126.436 54.3813 127.083 54.1459 127.637 53.8861C127.921 53.7537 128.059 53.5821 128.029 53.337C127.941 52.9203 127.995 52.2928 129.113 51.7682C130.088 51.3123 130.784 51.5917 131.069 52.1947C131.162 52.3908 131.275 52.4448 131.672 52.3222C131.838 52.2634 132.01 52.2094 132.157 52.1604C132.951 51.9202 133.495 52.2928 133.839 53.0184C134.26 53.9253 134.084 54.4646 132.946 55.2784C132.706 55.4549 132.647 55.5677 132.785 55.852L133.118 56.5629C133.51 57.3963 133.437 58.0777 132.319 58.6023C131.128 59.1612 130.5 58.6955 130.152 57.9503L129.794 57.1855C129.701 56.9894 129.598 56.9109 129.387 57.009C128.917 57.21 128.475 57.4159 128.152 57.563C128.029 57.6218 127.931 57.6904 127.858 57.7199C127.024 58.1121 126.951 58.5582 127.166 59.019C127.309 59.323 127.411 59.4014 127.519 59.6318C127.833 60.3084 127.617 60.9065 126.73 61.3232C125.647 61.8282 124.431 61.5977 123.48 59.5534C122.416 57.2786 123.431 55.7883 125.382 54.8764L125.372 54.8813Z" fill="#042F1A"/>
<path d="M126.116 62.5398C126.979 61.9711 128.332 61.4759 130.7 60.8582C132.161 60.4758 134.103 59.9905 135.853 59.8777C137.049 59.8091 137.721 60.2013 137.985 61.2259C138.265 62.2897 137.833 62.8879 136.676 63.1869C136.147 63.3242 135.549 63.4418 135.054 63.5693C134.617 63.6821 134.495 63.8389 134.534 63.986C134.573 64.138 134.666 64.1723 134.872 64.2802C135.657 64.643 136.103 65.1969 136.333 66.0696C136.853 68.06 135.24 69.4131 132.867 70.0308C131.181 70.472 129.587 70.825 128.347 70.8054C127.548 70.7711 127.043 70.4769 126.788 69.4915C126.494 68.3738 127.097 67.7315 127.896 67.5207C128.475 67.3295 129.239 67.153 130.024 66.9667C130.558 66.8442 131.117 66.7216 131.607 66.5942C132.367 66.3981 132.754 65.9519 132.612 65.3979C132.5 64.9616 131.897 64.4469 130.892 64.7116C129.695 65.0253 128.68 65.4077 127.523 65.7117C126.367 66.0157 125.714 65.3734 125.489 64.5204C125.224 63.5154 125.509 62.9565 126.107 62.5349L126.116 62.5398Z" fill="#042F1A"/>
<path d="M28.5225 82.988C28.4734 84.7186 26.9831 86.0815 25.1838 86.0325C23.3895 85.9786 21.9776 84.5372 22.0266 82.8066C22.0757 81.076 23.9288 80.1495 25.7182 80.2034C27.5125 80.2573 28.5666 81.2623 28.5175 82.9929L28.5225 82.988Z" fill="#042F1A"/>
<path d="M136.946 80.071C136.897 81.8016 135.407 83.1645 133.608 83.1155C131.813 83.0616 130.401 81.6202 130.45 79.8848C130.499 78.1542 132.353 77.2276 134.142 77.2815C135.936 77.3355 136.99 78.3405 136.941 80.071H136.946Z" fill="#042F1A"/>
<path d="M100.327 63.6767C99.1459 60.0194 96.724 56.8965 93.4786 54.8375C90.2331 52.7784 86.3749 51.9205 82.5656 52.4058C79.0848 52.847 75.8394 54.3864 73.295 56.7985C70.7506 59.2105 69.0445 62.3775 68.4219 65.8289L76.5502 61.1176L83.9138 65.4661L90.9097 60.4263L100.327 63.6865V63.6767Z" stroke="#042F1A" stroke-width="4.16713" stroke-linecap="round" stroke-linejoin="round"/>
<path d="M72.7016 63.6222C71.8045 66.8627 72.2898 69.8778 72.7801 73.1232C73.2997 76.5746 73.8047 80.0309 74.2999 83.4871C75.8883 94.6649 69.3287 104.45 63.3476 110.833C61.0386 113.299 63.9016 117.123 66.9118 115.589C71.8878 113.054 78.2071 108.505 85.5609 100.396C90.2134 95.2679 93.6697 89.1348 95.513 82.4527C97.3858 75.6725 98.1162 68.9071 95.8856 62.1367" stroke="#042F1A" stroke-width="4.16713" stroke-linecap="round" stroke-linejoin="round"/>
<path d="M87.0709 52.0474C86.5415 46.792 84.7864 43.5857 84.6687 43.3798C84.2569 42.6444 83.5656 42.1003 82.7518 41.8747C81.938 41.6492 81.0703 41.7522 80.3349 42.164C79.5995 42.5758 79.0553 43.2671 78.8298 44.0809C78.6043 44.8947 78.7073 45.7624 79.1191 46.5027C79.1436 46.537 80.2663 48.6647 80.6879 52.273" stroke="#042F1A" stroke-width="4.16713" stroke-linecap="round" stroke-linejoin="round"/>
</svg>
