<svg width="100" height="132" viewBox="0 0 100 132" fill="none" xmlns="http://www.w3.org/2000/svg">
<path fill-rule="evenodd" clip-rule="evenodd" d="M48.6792 4.7862C32.6554 1.33063 15.4371 6.99456 2.44724 17.3523C1.79952 17.8688 0.855749 17.7624 0.339273 17.1147C-0.177203 16.467 -0.0708058 15.5232 0.576917 15.0067C14.0905 4.23137 32.2048 -1.83551 49.3116 1.85361C66.4069 5.54024 81.5191 20.2503 82.7385 37.9442C83.1758 44.261 81.4239 50.3562 78.352 55.6817C83.4027 57.9406 87.973 61.5499 91.2942 65.9292C98.7923 75.8129 100.83 86.884 98.453 97.1184C96.081 107.329 89.34 116.609 79.4537 123.035C73.282 127.049 66.2812 130.13 58.8347 131.017C47.4487 132.376 35.9018 127.793 28.7337 118.745C22.5025 110.882 20.1288 100.122 22.4776 90.3677C22.6715 89.5623 23.4817 89.0666 24.2871 89.2605C25.0925 89.4545 25.5882 90.2646 25.3942 91.07C23.2615 99.927 25.4262 109.741 31.085 116.882L31.0851 116.882C37.5878 125.09 48.0986 129.277 58.4792 128.038L58.4795 128.038C65.343 127.221 71.909 124.363 77.8184 120.52L77.8187 120.52C87.129 114.468 93.3534 105.813 95.5308 96.4396C97.7026 87.0903 95.8738 76.9294 88.904 67.7422L88.9038 67.742C85.788 63.6335 81.4605 60.278 76.7313 58.2469C76.0887 59.18 75.4059 60.0838 74.6886 60.9549L74.6885 60.955C72.006 64.2121 68.9048 67.1622 65.3954 69.5753L65.3953 69.5754C63.8137 70.6627 61.8194 72.0218 59.6772 72.9581C57.5363 73.8937 55.0645 74.4904 52.5705 73.835L52.5701 73.8349C50.7087 73.3452 48.9717 72.12 48.0173 70.3314C47.0649 68.5485 47.1518 66.7017 47.6767 65.096C48.193 63.5163 49.1519 62.0935 50.0937 60.9805C55.9844 54.0149 64.0099 52.1358 71.6623 53.5688C72.9621 53.8122 74.2528 54.1509 75.5233 54.5767C78.4903 49.5884 80.1455 43.9274 79.7456 38.1514L79.7456 38.1509C78.6346 22.0251 64.7144 8.24422 48.6792 4.7862ZM73.8135 57.18C72.9188 56.9092 72.0159 56.6871 71.1101 56.5175C64.3427 55.2503 57.4701 56.9038 52.3842 62.918L52.3838 62.9184C51.5816 63.8665 50.8804 64.9507 50.5282 66.0281C50.1845 67.0795 50.1943 68.0397 50.6634 68.9179L50.6638 68.9187C51.1771 69.8809 52.1756 70.6291 53.3333 70.9336C54.9005 71.3453 56.632 71.015 58.4758 70.2091C60.3184 69.4039 62.0903 68.2069 63.6957 67.1033C66.9457 64.8685 69.8446 62.1175 72.3728 59.0478C72.8732 58.4401 73.3541 57.8171 73.8135 57.18Z" fill="#FF73B5"/>
</svg>
